<svg width="127" height="34" viewBox="0 0 127 34" fill="none" xmlns="http://www.w3.org/2000/svg">
<g clip-path="url(#clip0)">
<path d="M121.37 14.4069C118.484 14.7616 113.768 16.332 111.184 18.6926L112.55 19.2335C113.303 18.4447 114.558 17.5889 115.427 17.1985C118.636 20.484 123.938 19.076 125.515 15.0929C125.798 14.3792 125.952 13.5794 125.963 12.713C124.298 13.731 123.144 12.1627 120.619 11.4712C116.904 10.4543 114.179 12.5767 114.421 15.223C116.679 14.2807 120.022 14.0098 121.37 14.4069Z" fill="black"/>
</g>
<g clip-path="url(#clip1)">
<path d="M118.466 29.0021C116.998 26.4912 113.69 22.7815 110.5 21.3423L110.543 22.8112C111.566 23.1904 112.848 24.0041 113.55 24.648C111.803 28.8949 115.193 33.2079 119.476 33.0804C120.243 33.0576 121.038 32.8828 121.838 32.5498C120.245 31.4233 121.229 29.7432 120.865 27.1509C120.329 23.3367 117.302 21.6735 114.967 22.9426C116.726 24.644 118.297 27.607 118.466 29.0021Z" fill="white"/>
</g>
<g clip-path="url(#clip2)">
<path d="M112.658 5.4096C111.303 7.98329 109.904 12.7526 110.369 16.2213L111.593 15.4074C111.374 14.3393 111.387 12.8206 111.562 11.8839C116.09 11.1215 117.958 5.96273 115.585 2.39582C115.16 1.75679 114.591 1.17392 113.885 0.671066C113.772 2.61948 111.826 2.67284 109.818 4.35252C106.864 6.82433 107.053 10.2732 109.365 11.5837C109.879 9.1911 111.563 6.29047 112.658 5.4096Z" fill="#565656"/>
</g>
<path d="M13.08 30.5101C11.52 30.5101 10.74 29.8401 10.74 28.5001C10.74 28.0601 10.8 27.5601 10.92 27.0001C11.06 26.4201 11.25 25.6801 11.49 24.7801C11.77 23.8401 11.98 23.0401 12.12 22.3801C12.26 21.7201 12.33 21.1301 12.33 20.6101C12.33 19.2501 11.73 18.5701 10.53 18.5701C10.21 18.5701 9.88 18.6101 9.54 18.6901L7.14 30.0001H2.82L6.9 10.9201L11.34 10.3201L9.87 17.2501H10.11C10.89 17.2501 11.61 16.9801 12.27 16.4401C12.93 15.9001 13.44 15.2301 13.8 14.4301C14.18 13.6101 14.37 12.8101 14.37 12.0301C14.37 11.1101 14.09 10.3601 13.53 9.78006C12.99 9.18006 12.17 8.88006 11.07 8.88006C9.45 8.88006 8.03 9.17006 6.81 9.75006C5.59 10.3301 4.64 11.1701 3.96 12.2701C3.3 13.3701 2.97 14.6701 2.97 16.1701C2.97 16.9101 3.04 17.4301 3.18 17.7301C3.32 18.0101 3.39 18.1701 3.39 18.2101C2.31 18.2101 1.5 17.9901 0.96 17.5501C0.44 17.0901 0.18 16.3401 0.18 15.3001C0.18 14.0201 0.7 12.7801 1.74 11.5801C2.8 10.3601 4.15 9.38006 5.79 8.64006C7.43 7.88006 9.07 7.50006 10.71 7.50006C12.21 7.50006 13.47 7.72006 14.49 8.16006C15.51 8.60006 16.27 9.19006 16.77 9.93006C17.27 10.6501 17.52 11.4401 17.52 12.3001C17.52 13.2401 17.23 14.1801 16.65 15.1201C16.07 16.0601 15.28 16.8301 14.28 17.4301C15.04 17.6501 15.57 18.0201 15.87 18.5401C16.19 19.0401 16.35 19.6701 16.35 20.4301C16.35 21.0101 16.28 21.6301 16.14 22.2901C16 22.9301 15.8 23.7301 15.54 24.6901C15.38 25.3101 15.23 25.9201 15.09 26.5201C14.95 27.1201 14.88 27.6201 14.88 28.0201C14.88 28.4801 14.98 28.8901 15.18 29.2501C15.4 29.6101 15.69 29.8601 16.05 30.0001C14.83 30.3401 13.84 30.5101 13.08 30.5101ZM22.3076 30.1801C20.8276 30.1801 19.6776 29.8001 18.8576 29.0401C18.0376 28.2601 17.6276 27.0501 17.6276 25.4101C17.6276 24.0301 17.8976 22.5101 18.4376 20.8501C18.9776 19.1901 19.8576 17.7601 21.0776 16.5601C22.2976 15.3401 23.8476 14.7301 25.7276 14.7301C27.9276 14.7301 29.0276 15.6901 29.0276 17.6101C29.0276 18.7301 28.7076 19.7601 28.0676 20.7001C27.4276 21.6401 26.5776 22.4001 25.5176 22.9801C24.4576 23.5401 23.3276 23.8601 22.1276 23.9401C22.0876 24.5401 22.0676 24.9401 22.0676 25.1401C22.0676 26.1201 22.2376 26.7901 22.5776 27.1501C22.9176 27.4901 23.4676 27.6601 24.2276 27.6601C25.3076 27.6601 26.2276 27.4101 26.9876 26.9101C27.7676 26.4101 28.6176 25.6501 29.5376 24.6301H30.5576C28.3376 28.3301 25.5876 30.1801 22.3076 30.1801ZM22.3676 22.5001C23.1076 22.4601 23.8076 22.2001 24.4676 21.7201C25.1476 21.2401 25.6876 20.6301 26.0876 19.8901C26.5076 19.1501 26.7176 18.3701 26.7176 17.5501C26.7176 16.7301 26.4676 16.3201 25.9676 16.3201C25.2476 16.3201 24.5376 16.9501 23.8376 18.2101C23.1576 19.4701 22.6676 20.9001 22.3676 22.5001ZM33.1313 30.1801C31.9913 30.1801 31.0413 29.7901 30.2813 29.0101C29.5212 28.2301 29.1412 27.0101 29.1412 25.3501C29.1412 23.8701 29.4313 22.3201 30.0113 20.7001C30.6113 19.0601 31.4913 17.6801 32.6513 16.5601C33.8313 15.4201 35.2313 14.8501 36.8513 14.8501C37.6713 14.8501 38.2813 14.9901 38.6813 15.2701C39.0813 15.5501 39.2813 15.9201 39.2813 16.3801V16.5001L40.7513 9.60006L45.1913 9.00006L41.7413 25.2001C41.6613 25.5001 41.6213 25.7901 41.6213 26.0701C41.6213 26.8701 42.0313 27.2701 42.8513 27.2701C43.2113 27.2701 43.5313 27.2101 43.8113 27.0901C43.7313 28.0901 43.3713 28.8601 42.7313 29.4001C42.1113 29.9201 41.3713 30.1801 40.5113 30.1801C39.7113 30.1801 39.0313 29.9801 38.4713 29.5801C37.9313 29.1601 37.5713 28.5301 37.3913 27.6901C36.1913 29.3501 34.7713 30.1801 33.1313 30.1801ZM35.0813 27.2701C35.5213 27.2701 35.9613 27.0801 36.4013 26.7001C36.8613 26.3201 37.2013 25.7901 37.4213 25.1101L37.5413 24.6301L39.0113 17.7601C38.8313 17.0601 38.4213 16.7101 37.7813 16.7101C36.9813 16.7101 36.2613 17.1801 35.6213 18.1201C34.9813 19.0401 34.4813 20.1601 34.1213 21.4801C33.7613 22.7801 33.5813 23.9301 33.5813 24.9301C33.5813 25.9301 33.7213 26.5701 34.0013 26.8501C34.3013 27.1301 34.6613 27.2701 35.0813 27.2701Z" fill="white"/>
<path d="M59.9327 9.39006C58.4127 9.89006 57.2327 10.7201 56.3927 11.8801C55.5727 13.0201 55.1627 14.4401 55.1627 16.1401C55.1627 16.9001 55.2327 17.4201 55.3727 17.7001C55.5127 17.9801 55.5827 18.1501 55.5827 18.2101C53.4427 18.2101 52.3727 17.3001 52.3727 15.4801C52.3727 14.2401 52.8427 13.0001 53.7827 11.7601C54.7427 10.5001 55.9627 9.48006 57.4427 8.70006C58.9427 7.90006 60.4327 7.50006 61.9127 7.50006C62.6527 7.50006 63.4127 7.64006 64.1927 7.92006L63.5027 23.7301L70.1027 7.92006H74.4227L71.2727 30.0001H66.9527L68.8727 16.5301L63.2327 30.0001H59.1227L59.7227 16.4701L54.7127 30.0001H52.3127L59.9327 9.39006ZM78.926 13.3801C78.266 13.3801 77.706 13.1501 77.246 12.6901C76.786 12.2301 76.556 11.6701 76.556 11.0101C76.556 10.3501 76.786 9.79006 77.246 9.33006C77.706 8.85006 78.266 8.61006 78.926 8.61006C79.586 8.61006 80.146 8.85006 80.606 9.33006C81.086 9.79006 81.326 10.3501 81.326 11.0101C81.326 11.6701 81.086 12.2301 80.606 12.6901C80.146 13.1501 79.586 13.3801 78.926 13.3801ZM76.886 30.1801C75.926 30.1801 75.146 29.8801 74.546 29.2801C73.966 28.6801 73.676 27.7801 73.676 26.5801C73.676 26.0801 73.756 25.4301 73.916 24.6301L75.956 15.0001H80.276L78.116 25.2001C78.036 25.5001 77.996 25.8201 77.996 26.1601C77.996 26.5601 78.086 26.8501 78.266 27.0301C78.466 27.1901 78.786 27.2701 79.226 27.2701C79.806 27.2701 80.346 27.0301 80.846 26.5501C81.346 26.0501 81.706 25.4101 81.926 24.6301H83.186C82.446 26.7901 81.496 28.2601 80.336 29.0401C79.176 29.8001 78.026 30.1801 76.886 30.1801ZM92.7441 30.1801C91.5241 30.1801 90.6241 29.8601 90.0441 29.2201C89.4841 28.5601 89.2041 27.7501 89.2041 26.7901C89.2041 26.3701 89.2541 25.9001 89.3541 25.3801C89.4541 24.8401 89.5541 24.3201 89.6541 23.8201C89.7741 23.3201 89.8541 23.0001 89.8941 22.8601C90.0541 22.1601 90.2041 21.4701 90.3441 20.7901C90.4841 20.1101 90.5541 19.5601 90.5541 19.1401C90.5541 18.1201 90.1941 17.6101 89.4741 17.6101C88.9541 17.6101 88.4941 17.8701 88.0941 18.3901C87.6941 18.8901 87.3741 19.5501 87.1341 20.3701L85.0941 30.0001H80.7741L83.9541 15.0001H88.2741L87.9441 16.5601C88.9441 15.4401 90.1141 14.8801 91.4541 14.8801C92.4741 14.8801 93.2841 15.1601 93.8841 15.7201C94.4841 16.2801 94.7841 17.1301 94.7841 18.2701C94.7841 18.8501 94.7141 19.5001 94.5741 20.2201C94.4341 20.9201 94.2341 21.7801 93.9741 22.8001C93.8141 23.4201 93.6641 24.0301 93.5241 24.6301C93.4041 25.2101 93.3441 25.6701 93.3441 26.0101C93.3441 26.4101 93.4341 26.7201 93.6141 26.9401C93.7941 27.1601 94.1041 27.2701 94.5441 27.2701C95.1441 27.2701 95.6241 27.0601 95.9841 26.6401C96.3441 26.2001 96.7041 25.5301 97.0641 24.6301H98.3241C97.5841 26.8301 96.7241 28.3101 95.7441 29.0701C94.7841 29.8101 93.7841 30.1801 92.7441 30.1801ZM99.8805 30.1801C98.8605 30.1801 98.1005 29.8701 97.6005 29.2501C97.1205 28.6301 96.8805 27.8101 96.8805 26.7901C96.8805 26.2701 96.9405 25.7401 97.0605 25.2001L98.9805 16.2001H97.9905L98.2305 15.0001H99.2205L100.121 10.8601L104.561 10.2601C104.381 11.0201 104.281 11.4701 104.261 11.6101C104.121 12.1701 103.881 13.3001 103.541 15.0001H105.341L105.101 16.2001H103.301L101.381 25.2001C101.281 25.6401 101.231 25.9901 101.231 26.2501C101.231 26.9701 101.581 27.3301 102.281 27.3301C102.641 27.3301 102.901 27.3001 103.061 27.2401C102.661 28.4001 102.191 29.1801 101.651 29.5801C101.111 29.9801 100.521 30.1801 99.8805 30.1801Z" fill="black"/>
<defs>
<clipPath id="clip0">
<rect width="12" height="12" fill="white" transform="translate(115.417 8.00006) rotate(21.5992)"/>
</clipPath>
<clipPath id="clip1">
<rect width="12" height="12" fill="white" transform="translate(121.995 21.0001) rotate(88.2945)"/>
</clipPath>
<clipPath id="clip2">
<rect width="12" height="12" fill="white" transform="translate(104 6.6463) rotate(-33.6321)"/>
</clipPath>
</defs>
</svg>
