<svg width="216" height="61" viewBox="0 0 216 61" fill="none" xmlns="http://www.w3.org/2000/svg">
<g clip-path="url(#clip0)">
<path d="M207.069 28.342C202.192 28.9414 194.224 31.5947 189.858 35.5832L192.167 36.4972C193.439 35.1644 195.558 33.7185 197.027 33.0589C202.449 38.61 211.408 36.2312 214.073 29.5011C214.55 28.2954 214.811 26.9439 214.829 25.48C212.015 27.2001 210.066 24.5502 205.8 23.382C199.523 21.6637 194.919 25.2497 195.327 29.721C199.143 28.1289 204.792 27.6711 207.069 28.342Z" fill="white"/>
</g>
<g clip-path="url(#clip1)">
<path d="M202.162 53.0025C199.681 48.76 194.092 42.492 188.702 40.0603L188.776 42.5421C190.503 43.1829 192.67 44.5577 193.857 45.6457C190.903 52.8213 196.633 60.1086 203.868 59.8931C205.164 59.8546 206.508 59.5593 207.86 58.9967C205.167 57.0932 206.83 54.2546 206.215 49.8746C205.31 43.43 200.195 40.62 196.25 42.7642C199.222 45.6389 201.877 50.6453 202.162 53.0025Z" fill="white"/>
</g>
<g clip-path="url(#clip2)">
<path d="M192.348 13.1402C190.059 17.4887 187.695 25.547 188.482 31.4078L190.549 30.0326C190.18 28.2279 190.201 25.662 190.496 24.0793C198.148 22.7911 201.303 14.0747 197.294 8.04804C196.576 6.96833 195.615 5.9835 194.422 5.13387C194.231 8.42593 190.943 8.51609 187.55 11.3541C182.559 15.5305 182.879 21.3578 186.785 23.572C187.653 19.5294 190.498 14.6285 192.348 13.1402Z" fill="white"/>
</g>
<path d="M21.8 50.85C19.2 50.85 17.9 49.7333 17.9 47.5C17.9 46.7667 18 45.9333 18.2 45C18.4333 44.0333 18.75 42.8 19.15 41.3C19.6167 39.7333 19.9667 38.4 20.2 37.3C20.4333 36.2 20.55 35.2167 20.55 34.35C20.55 32.0833 19.55 30.95 17.55 30.95C17.0167 30.95 16.4667 31.0167 15.9 31.15L11.9 50H4.7L11.5 18.2L18.9 17.2L16.45 28.75H16.85C18.15 28.75 19.35 28.3 20.45 27.4C21.55 26.5 22.4 25.3833 23 24.05C23.6333 22.6833 23.95 21.35 23.95 20.05C23.95 18.5167 23.4833 17.2667 22.55 16.3C21.65 15.3 20.2833 14.8 18.45 14.8C15.75 14.8 13.3833 15.2833 11.35 16.25C9.31667 17.2167 7.73333 18.6167 6.6 20.45C5.5 22.2833 4.95 24.45 4.95 26.95C4.95 28.1833 5.06667 29.05 5.3 29.55C5.53333 30.0167 5.65 30.2833 5.65 30.35C3.85 30.35 2.5 29.9833 1.6 29.25C0.733333 28.4833 0.3 27.2333 0.3 25.5C0.3 23.3667 1.16667 21.3 2.9 19.3C4.66667 17.2667 6.91667 15.6333 9.65 14.4C12.3833 13.1333 15.1167 12.5 17.85 12.5C20.35 12.5 22.45 12.8667 24.15 13.6C25.85 14.3333 27.1167 15.3167 27.95 16.55C28.7833 17.75 29.2 19.0667 29.2 20.5C29.2 22.0667 28.7167 23.6333 27.75 25.2C26.7833 26.7667 25.4667 28.05 23.8 29.05C25.0667 29.4167 25.95 30.0333 26.45 30.9C26.9833 31.7333 27.25 32.7833 27.25 34.05C27.25 35.0167 27.1333 36.05 26.9 37.15C26.6667 38.2167 26.3333 39.55 25.9 41.15C25.6333 42.1833 25.3833 43.2 25.15 44.2C24.9167 45.2 24.8 46.0333 24.8 46.7C24.8 47.4667 24.9667 48.15 25.3 48.75C25.6667 49.35 26.15 49.7667 26.75 50C24.7167 50.5667 23.0667 50.85 21.8 50.85ZM37.1793 50.3C34.7126 50.3 32.796 49.6667 31.4293 48.4C30.0626 47.1 29.3793 45.0833 29.3793 42.35C29.3793 40.05 29.8293 37.5167 30.7293 34.75C31.6293 31.9833 33.096 29.6 35.1293 27.6C37.1626 25.5667 39.746 24.55 42.8793 24.55C46.546 24.55 48.3793 26.15 48.3793 29.35C48.3793 31.2167 47.846 32.9333 46.7793 34.5C45.7126 36.0667 44.296 37.3333 42.5293 38.3C40.7626 39.2333 38.8793 39.7667 36.8793 39.9C36.8126 40.9 36.7793 41.5667 36.7793 41.9C36.7793 43.5333 37.0626 44.65 37.6293 45.25C38.196 45.8167 39.1126 46.1 40.3793 46.1C42.1793 46.1 43.7126 45.6833 44.9793 44.85C46.2793 44.0167 47.696 42.75 49.2293 41.05H50.9293C47.2293 47.2167 42.646 50.3 37.1793 50.3ZM37.2793 37.5C38.5126 37.4333 39.6793 37 40.7793 36.2C41.9126 35.4 42.8126 34.3833 43.4793 33.15C44.1793 31.9167 44.5293 30.6167 44.5293 29.25C44.5293 27.8833 44.1126 27.2 43.2793 27.2C42.0793 27.2 40.896 28.25 39.7293 30.35C38.596 32.45 37.7793 34.8333 37.2793 37.5ZM55.2188 50.3C53.3188 50.3 51.7354 49.65 50.4688 48.35C49.2021 47.05 48.5687 45.0167 48.5687 42.25C48.5687 39.7833 49.0521 37.2 50.0188 34.5C51.0188 31.7667 52.4854 29.4667 54.4188 27.6C56.3854 25.7 58.7188 24.75 61.4188 24.75C62.7854 24.75 63.8021 24.9833 64.4688 25.45C65.1354 25.9167 65.4688 26.5333 65.4688 27.3V27.5L67.9188 16L75.3188 15L69.5688 42C69.4354 42.5 69.3688 42.9833 69.3688 43.45C69.3688 44.7833 70.0521 45.45 71.4188 45.45C72.0188 45.45 72.5521 45.35 73.0188 45.15C72.8854 46.8167 72.2854 48.1 71.2188 49C70.1854 49.8667 68.9521 50.3 67.5188 50.3C66.1854 50.3 65.0521 49.9667 64.1188 49.3C63.2188 48.6 62.6188 47.55 62.3188 46.15C60.3188 48.9167 57.9521 50.3 55.2188 50.3ZM58.4688 45.45C59.2021 45.45 59.9354 45.1333 60.6688 44.5C61.4354 43.8667 62.0021 42.9833 62.3688 41.85L62.5688 41.05L65.0188 29.6C64.7188 28.4333 64.0354 27.85 62.9688 27.85C61.6354 27.85 60.4354 28.6333 59.3688 30.2C58.3021 31.7333 57.4688 33.6 56.8688 35.8C56.2688 37.9667 55.9688 39.8833 55.9688 41.55C55.9688 43.2167 56.2021 44.2833 56.6688 44.75C57.1688 45.2167 57.7688 45.45 58.4688 45.45ZM99.8879 15.65C97.3546 16.4833 95.3879 17.8667 93.9879 19.8C92.6212 21.7 91.9379 24.0667 91.9379 26.9C91.9379 28.1667 92.0546 29.0333 92.2879 29.5C92.5212 29.9667 92.6379 30.25 92.6379 30.35C89.0712 30.35 87.2879 28.8333 87.2879 25.8C87.2879 23.7333 88.0712 21.6667 89.6379 19.6C91.2379 17.5 93.2712 15.8 95.7379 14.5C98.2379 13.1667 100.721 12.5 103.188 12.5C104.421 12.5 105.688 12.7333 106.988 13.2L105.838 39.55L116.838 13.2H124.038L118.788 50H111.588L114.788 27.55L105.388 50H98.5379L99.5379 27.45L91.1879 50H87.1879L99.8879 15.65ZM131.543 22.3C130.443 22.3 129.51 21.9167 128.743 21.15C127.977 20.3833 127.593 19.45 127.593 18.35C127.593 17.25 127.977 16.3167 128.743 15.55C129.51 14.75 130.443 14.35 131.543 14.35C132.643 14.35 133.577 14.75 134.343 15.55C135.143 16.3167 135.543 17.25 135.543 18.35C135.543 19.45 135.143 20.3833 134.343 21.15C133.577 21.9167 132.643 22.3 131.543 22.3ZM128.143 50.3C126.543 50.3 125.243 49.8 124.243 48.8C123.277 47.8 122.793 46.3 122.793 44.3C122.793 43.4667 122.927 42.3833 123.193 41.05L126.593 25H133.793L130.193 42C130.06 42.5 129.993 43.0333 129.993 43.6C129.993 44.2667 130.143 44.75 130.443 45.05C130.777 45.3167 131.31 45.45 132.043 45.45C133.01 45.45 133.91 45.05 134.743 44.25C135.577 43.4167 136.177 42.35 136.543 41.05H138.643C137.41 44.65 135.827 47.1 133.893 48.4C131.96 49.6667 130.043 50.3 128.143 50.3ZM154.573 50.3C152.54 50.3 151.04 49.7667 150.073 48.7C149.14 47.6 148.673 46.25 148.673 44.65C148.673 43.95 148.757 43.1667 148.923 42.3C149.09 41.4 149.257 40.5333 149.423 39.7C149.623 38.8667 149.757 38.3333 149.823 38.1C150.09 36.9333 150.34 35.7833 150.573 34.65C150.807 33.5167 150.923 32.6 150.923 31.9C150.923 30.2 150.323 29.35 149.123 29.35C148.257 29.35 147.49 29.7833 146.823 30.65C146.157 31.4833 145.623 32.5833 145.223 33.95L141.823 50H134.623L139.923 25H147.123L146.573 27.6C148.24 25.7333 150.19 24.8 152.423 24.8C154.123 24.8 155.473 25.2667 156.473 26.2C157.473 27.1333 157.973 28.55 157.973 30.45C157.973 31.4167 157.857 32.5 157.623 33.7C157.39 34.8667 157.057 36.3 156.623 38C156.357 39.0333 156.107 40.05 155.873 41.05C155.673 42.0167 155.573 42.7833 155.573 43.35C155.573 44.0167 155.723 44.5333 156.023 44.9C156.323 45.2667 156.84 45.45 157.573 45.45C158.573 45.45 159.373 45.1 159.973 44.4C160.573 43.6667 161.173 42.55 161.773 41.05H163.873C162.64 44.7167 161.207 47.1833 159.573 48.45C157.973 49.6833 156.307 50.3 154.573 50.3ZM166.468 50.3C164.768 50.3 163.501 49.7833 162.668 48.75C161.868 47.7167 161.468 46.35 161.468 44.65C161.468 43.7833 161.568 42.9 161.768 42L164.968 27H163.318L163.718 25H165.368L166.868 18.1L174.268 17.1C173.968 18.3667 173.801 19.1167 173.768 19.35C173.534 20.2833 173.134 22.1667 172.568 25H175.568L175.168 27H172.168L168.968 42C168.801 42.7333 168.718 43.3167 168.718 43.75C168.718 44.95 169.301 45.55 170.468 45.55C171.068 45.55 171.501 45.5 171.768 45.4C171.101 47.3333 170.318 48.6333 169.418 49.3C168.518 49.9667 167.534 50.3 166.468 50.3Z" fill="white"/>
<defs>
<clipPath id="clip0">
<rect width="20.2754" height="20.2754" fill="white" transform="translate(197.011 17.517) rotate(21.5992)"/>
</clipPath>
<clipPath id="clip1">
<rect width="20.2754" height="20.2754" fill="white" transform="translate(208.124 39.482) rotate(88.2945)"/>
</clipPath>
<clipPath id="clip2">
<rect width="20.2754" height="20.2754" fill="white" transform="translate(177.72 15.2297) rotate(-33.6321)"/>
</clipPath>
</defs>
</svg>
