<svg width="30" height="30" viewBox="0 0 30 30" fill="none" xmlns="http://www.w3.org/2000/svg">
<g clip-path="url(#clip0)">
<path d="M13.75 11.5937C13.75 18.02 8.885 24.7425 1.25 26.25L0.0200007 23.5925C2.78875 22.5487 5.22375 18.915 5.495 16.41C2.38125 15.92 1.13857e-06 13.2262 1.42291e-06 9.97375C1.77064e-06 5.99625 3.23 3.75 6.49875 3.75C10.2675 3.75 13.75 6.63125 13.75 11.5937ZM30 11.5938C30 18.02 25.135 24.7425 17.5 26.25L16.27 23.5925C19.0388 22.5487 21.4738 18.915 21.745 16.41C18.6313 15.92 16.25 13.2262 16.25 9.97375C16.25 5.99625 19.48 3.75 22.7488 3.75C26.5175 3.75 30 6.63125 30 11.5938Z" fill="#D72323"/>
</g>
<defs>
<clipPath id="clip0">
<rect width="30" height="30" fill="white" transform="translate(30 30) rotate(-180)"/>
</clipPath>
</defs>
</svg>
