<svg width="30" height="30" viewBox="0 0 30 30" fill="none" xmlns="http://www.w3.org/2000/svg">
<path d="M16.25 18.4062C16.25 11.98 21.115 5.2575 28.75 3.75L29.98 6.4075C27.2112 7.45125 24.7763 11.085 24.505 13.59C27.6187 14.08 30 16.7738 30 20.0262C30 24.0037 26.77 26.25 23.5013 26.25C19.7325 26.25 16.25 23.3687 16.25 18.4062ZM0 18.4062C0 11.98 4.865 5.2575 12.5 3.75L13.73 6.4075C10.9613 7.45125 8.52625 11.085 8.255 13.59C11.3687 14.08 13.75 16.7738 13.75 20.0262C13.75 24.0037 10.52 26.25 7.25125 26.25C3.4825 26.25 0 23.3687 0 18.4062Z" fill="#D72323"/>
</svg>
