<svg width="60" height="60" viewBox="0 0 60 60" fill="none" xmlns="http://www.w3.org/2000/svg">
<path d="M27.1875 47.8125H24.375V49.6875H27.1875V47.8125Z" fill="black"/>
<path d="M55.3125 0H4.6875C2.10281 0 0 2.10281 0 4.6875V45C0 47.5847 2.10281 49.6875 4.6875 49.6875H9.375V47.8125H4.6875C3.13687 47.8125 1.875 46.5506 1.875 45V9.375H58.125V45C58.125 46.5506 56.8631 47.8125 55.3125 47.8125V49.6875C57.8972 49.6875 60 47.5847 60 45V4.6875C60 2.10281 57.8972 0 55.3125 0ZM58.125 7.5H1.875V4.6875C1.875 3.13687 3.13687 1.875 4.6875 1.875H55.3125C56.8631 1.875 58.125 3.13687 58.125 4.6875V7.5Z" fill="black"/>
<path d="M4.6875 5.625C5.20527 5.625 5.625 5.20527 5.625 4.6875C5.625 4.16973 5.20527 3.75 4.6875 3.75C4.16973 3.75 3.75 4.16973 3.75 4.6875C3.75 5.20527 4.16973 5.625 4.6875 5.625Z" fill="black"/>
<path d="M8.4375 5.625C8.95527 5.625 9.375 5.20527 9.375 4.6875C9.375 4.16973 8.95527 3.75 8.4375 3.75C7.91973 3.75 7.5 4.16973 7.5 4.6875C7.5 5.20527 7.91973 5.625 8.4375 5.625Z" fill="black"/>
<path d="M12.1875 5.625C12.7053 5.625 13.125 5.20527 13.125 4.6875C13.125 4.16973 12.7053 3.75 12.1875 3.75C11.6697 3.75 11.25 4.16973 11.25 4.6875C11.25 5.20527 11.6697 5.625 12.1875 5.625Z" fill="black"/>
<path d="M48.75 37.5H43.125V33.75C43.125 33.2325 42.705 32.8125 42.1875 32.8125H30.0572C30.6178 31.3547 30.9375 29.7778 30.9375 28.125C30.9375 27.6075 30.5175 27.1875 30 27.1875H18.75V15.9375C18.75 15.42 18.33 15 17.8125 15C10.575 15 4.6875 20.8875 4.6875 28.125C4.6875 35.3625 10.575 41.25 17.8125 41.25C22.6575 41.25 26.8884 38.6034 29.1619 34.6875H41.25V37.5H33.75C31.1653 37.5 29.0625 39.6028 29.0625 42.1875V51.5625C29.0625 54.1472 31.1653 56.25 33.75 56.25H48.75C51.3347 56.25 53.4375 54.1472 53.4375 51.5625V42.1875C53.4375 39.6028 51.3347 37.5 48.75 37.5ZM6.5625 28.125C6.5625 22.2375 11.1094 17.3916 16.875 16.9144V27.9375L12.6394 38.1038C9.03375 36.2278 6.5625 32.4628 6.5625 28.125ZM28.0266 32.8125H24.2016C23.8134 31.7241 22.7822 30.9375 21.5616 30.9375C20.0109 30.9375 18.7491 32.1994 18.7491 33.75C18.7491 35.3006 20.0109 36.5625 21.5616 36.5625C22.7822 36.5625 23.8134 35.7759 24.2016 34.6875H26.9353C24.8906 37.5216 21.5663 39.375 17.8125 39.375C16.6106 39.375 15.4537 39.1809 14.3672 38.8303L18.4378 29.0625H29.0231C28.9125 30.3928 28.5609 31.6528 28.0266 32.8125ZM22.5 33.75C22.5 34.2666 22.0791 34.6875 21.5625 34.6875C21.0459 34.6875 20.625 34.2666 20.625 33.75C20.625 33.2334 21.0459 32.8125 21.5625 32.8125C22.0791 32.8125 22.5 33.2334 22.5 33.75ZM51.5625 51.5625C51.5625 53.1131 50.3006 54.375 48.75 54.375H33.75C32.1994 54.375 30.9375 53.1131 30.9375 51.5625V42.1875C30.9375 40.6369 32.1994 39.375 33.75 39.375H48.75C50.3006 39.375 51.5625 40.6369 51.5625 42.1875V51.5625Z" fill="black"/>
<path d="M34.6875 11.25C34.4391 11.25 34.2 11.3484 34.0247 11.5247L30.6356 14.9137C28.2759 12.6506 25.0828 11.25 21.5625 11.25C21.045 11.25 20.625 11.67 20.625 12.1875V24.375C20.625 24.8925 21.045 25.3125 21.5625 25.3125H33.75C34.2675 25.3125 34.6875 24.8925 34.6875 24.375C34.6875 21.3328 33.6375 18.5353 31.8938 16.3069L35.0756 13.125H39.375V11.25H34.6875ZM32.7731 23.4375H22.5V13.1644C25.1316 13.3828 27.5034 14.5172 29.3109 16.2384L27.4622 18.0872L28.7878 19.4128L30.5578 17.6428C31.7925 19.2872 32.5941 21.2737 32.7731 23.4375Z" fill="black"/>
<path d="M56.25 11.25H41.25V13.125H56.25V11.25Z" fill="black"/>
<path d="M56.25 15H41.25V16.875H56.25V15Z" fill="black"/>
<path d="M56.25 18.75H41.25V20.625H56.25V18.75Z" fill="black"/>
<path d="M22.5 58.125V48.75C22.5 48.2325 22.08 47.8125 21.5625 47.8125H17.8125V45C17.8125 44.4825 17.3925 44.0625 16.875 44.0625H12.1875C11.67 44.0625 11.25 44.4825 11.25 45V52.5H7.5C6.9825 52.5 6.5625 52.92 6.5625 53.4375V58.125H1.875V60H7.5H12.1875H16.875H21.5625H26.25V58.125H22.5ZM11.25 58.125H8.4375V54.375H11.25V58.125ZM15.9375 48.75V58.125H13.125V53.4375V45.9375H15.9375V48.75ZM20.625 58.125H17.8125V49.6875H20.625V58.125Z" fill="black"/>
<path d="M47.8613 42.8282L45.6938 49.3326L41.1179 41.7051C40.9369 41.4032 40.6116 41.2279 40.2507 41.2522C39.8991 41.2757 39.5916 41.4941 39.4529 41.8185L37.186 47.1088L35.3522 45.2751C35.13 45.0529 34.8113 44.9572 34.501 45.0201C34.1925 45.0829 33.9357 45.2976 33.8185 45.5901L31.9435 50.2776L33.6835 50.9741L35.0307 47.6066L36.8382 49.4141C37.0585 49.6344 37.3725 49.731 37.6782 49.6719C37.9838 49.6138 38.2407 49.4066 38.3625 49.1207L40.4532 44.2429L45.135 52.0457C45.3047 52.3297 45.6104 52.5004 45.9375 52.5004C45.9713 52.5004 46.006 52.4985 46.0397 52.4947C46.4035 52.4554 46.711 52.206 46.8272 51.8591L49.6397 43.4216L47.8613 42.8282Z" fill="black"/>
<path d="M55.3125 24.375H45.9375C45.42 24.375 45 24.795 45 25.3125V32.8125C45 33.33 45.42 33.75 45.9375 33.75H55.3125C55.83 33.75 56.25 33.33 56.25 32.8125V25.3125C56.25 24.795 55.83 24.375 55.3125 24.375ZM52.6397 26.25L50.625 27.8625L48.6094 26.25H52.6397ZM46.875 27.2625L49.125 29.0625L46.875 30.8625V27.2625ZM48.6094 31.875L50.625 30.2625L52.6406 31.875H48.6094ZM54.375 30.8616L52.125 29.0625L54.375 27.2625V30.8616Z" fill="black"/>
</svg>
