<svg width="60" height="60" viewBox="0 0 60 60" fill="none" xmlns="http://www.w3.org/2000/svg">
<g clip-path="url(#clip0)">
<path d="M21.0088 12.9912C12.7245 12.9865 6.00488 19.6982 6 27.9825C5.9965 33.95 9.53075 39.352 15 41.739V49C15 50.6568 16.3431 52 18 52V53C18 54.6568 19.3431 56 21 56C22.6569 56 24 54.6568 24 53V52C25.6569 52 27 50.6568 27 49V41.739C32.4605 39.351 35.9921 33.9598 36 28C36.0049 19.7157 29.293 12.9961 21.0088 12.9912ZM22 53C22 53.5522 21.5523 54 21 54C20.4478 54 20 53.5522 20 53V52H22V53ZM24 50H18C17.4478 50 17 49.5522 17 49H25C25 49.5522 24.5523 50 24 50ZM25 47H17V46H25V47ZM25 44H17V42.442C19.6148 43.186 22.3853 43.186 25 42.442V44ZM24.509 40.505L25.99 30.142L24.01 29.858L22.431 40.917C21.4803 41.0276 20.5198 41.0276 19.569 40.917L17.99 29.858L16.01 30.142L17.491 40.505C11.8859 38.9295 8.00963 33.8222 8 28C7.99313 20.8202 13.8079 14.9943 20.9875 14.9875C28.1673 14.9806 33.9931 20.7953 34 27.975C34.0056 33.808 30.1254 38.9305 24.509 40.505Z" fill="black"/>
<path d="M59.707 17.293L46.707 4.293C46.5195 4.1055 46.2653 4 46 4V1C46 0.44775 45.5523 0 45 0H11V0.009C10.7359 0.00525 10.4811 0.1075 10.293 0.293L0.293 10.293C0.10875 10.482 0.006625 10.7361 0.009 11H0V59C0 59.5523 0.44775 60 1 60H45C45.5523 60 46 59.5523 46 59V26.414L48.293 28.707C48.6835 29.0974 49.3165 29.0974 49.707 28.707L59.707 18.707C60.0974 18.3165 60.0974 17.6835 59.707 17.293ZM42 2H44V4H42V2ZM10 3.414V10H3.414L10 3.414ZM40 58H2V12H11C11.5523 12 12 11.5523 12 11V2H40V4H36C35.4478 4 35 4.44775 35 5V15C35 15.2652 35.1055 15.5195 35.293 15.707L40 20.414V58ZM44 58H42V22.414L44 24.414V58ZM49 26.586L37 14.586V6H45.586L57.586 18L49 26.586Z" fill="black"/>
<path d="M25.447 25.11C25.1656 24.9694 24.8344 24.9694 24.553 25.11L21 26.882L17.447 25.105C17.1656 24.9644 16.8344 24.9644 16.553 25.105L12.553 27.105L13.447 28.895L17 27.118L20.553 28.9C20.8344 29.0406 21.1656 29.0406 21.447 28.9L25 27.118L28.553 28.9L29.447 27.11L25.447 25.11Z" fill="black"/>
<path d="M42 8C40.3431 8 39 9.34312 39 11C39 12.6569 40.3431 14 42 14C43.6569 14 45 12.6569 45 11C45 9.34312 43.6569 8 42 8ZM42 12C41.4477 12 41 11.5522 41 11C41 10.4477 41.4477 10 42 10C42.5522 10 43 10.4477 43 11C43 11.5522 42.5522 12 42 12Z" fill="black"/>
<path d="M33 10H25V12H33V10Z" fill="black"/>
<path d="M33 6H30V8H33V6Z" fill="black"/>
<path d="M28 6H20V8H28V6Z" fill="black"/>
<path d="M52.2914 16.2938L47.2922 21.293L48.7064 22.7072L53.7056 17.708L52.2914 16.2938Z" fill="black"/>
<path d="M59.7691 34.3849L59.7811 34.3749L55.7811 29.3749C55.4052 28.9435 54.7507 28.8986 54.3195 29.2746C54.2837 29.3057 54.2502 29.3392 54.2192 29.3749L50.2192 34.3749L50.2312 34.3849C50.0857 34.5572 50.0042 34.7744 50.0002 34.9999V57.9999C50.0002 59.1045 50.8956 59.9999 52.0002 59.9999H58.0002C59.1049 59.9999 60.0002 59.1045 60.0002 57.9999V34.9999C59.9961 34.7744 59.9146 34.5571 59.7691 34.3849ZM55.0001 31.5999L56.9201 33.9999H53.0801L55.0001 31.5999ZM58.0001 57.9999H52.0001V35.9999H58.0001V57.9999Z" fill="black"/>
<path d="M38 43H30V45H38V43Z" fill="black"/>
<path d="M38 47H30V49H38V47Z" fill="black"/>
<path d="M38 51H30V53H38V51Z" fill="black"/>
</g>
<defs>
<clipPath id="clip0">
<rect width="60" height="60" fill="white"/>
</clipPath>
</defs>
</svg>
