<svg width="60" height="60" viewBox="0 0 60 60" fill="none" xmlns="http://www.w3.org/2000/svg">
<path d="M17.1496 41.9129L18.4755 40.5871L7.88839 30L34.1384 3.75H49.6875V7.5H47.6513C47.4301 6.87449 46.995 6.34729 46.4227 6.0116C45.8505 5.6759 45.1779 5.55331 44.524 5.6655C43.8701 5.7777 43.2769 6.11744 42.8493 6.62469C42.4217 7.13195 42.1871 7.77404 42.1871 8.4375C42.1871 9.10096 42.4217 9.74305 42.8493 10.2503C43.2769 10.7576 43.8701 11.0973 44.524 11.2095C45.1779 11.3217 45.8505 11.1991 46.4227 10.8634C46.995 10.5277 47.4301 10.0005 47.6513 9.375H49.6875V19.2991L31.2121 37.7746L32.538 39.1004L51.288 20.3504C51.375 20.2634 51.4441 20.16 51.4912 20.0463C51.5383 19.9325 51.5625 19.8106 51.5625 19.6875V15H54.375C55.3696 15 56.3234 14.6049 57.0267 13.9016C57.7299 13.1984 58.125 12.2446 58.125 11.25C58.125 10.2554 57.7299 9.30161 57.0267 8.59835C56.3234 7.89509 55.3696 7.5 54.375 7.5H51.5625V2.8125C51.5625 2.56386 51.4638 2.3254 51.288 2.14959C51.1121 1.97377 50.8737 1.875 50.625 1.875H33.75C33.6269 1.875 33.505 1.89924 33.3913 1.94635C33.2775 1.99346 33.1742 2.06252 33.0871 2.14957L5.8996 29.3371C5.81254 29.4241 5.74348 29.5275 5.69637 29.6412C5.64925 29.755 5.625 29.8769 5.625 30C5.625 30.1231 5.64925 30.245 5.69637 30.3588C5.74348 30.4725 5.81254 30.5759 5.8996 30.6629L17.1496 41.9129ZM44.0625 8.4375C44.0628 8.18894 44.1617 7.95065 44.3374 7.7749C44.5132 7.59914 44.7515 7.50028 45 7.5V9.375C44.7515 9.37472 44.5132 9.27586 44.3374 9.1001C44.1617 8.92435 44.0628 8.68605 44.0625 8.4375V8.4375ZM54.375 9.375C54.8723 9.375 55.3492 9.57254 55.7009 9.92417C56.0525 10.2758 56.25 10.7527 56.25 11.25C56.25 11.7473 56.0525 12.2242 55.7009 12.5758C55.3492 12.9275 54.8723 13.125 54.375 13.125H51.5625V9.375H54.375Z" fill="black"/>
<path d="M27.3265 20.3735C27.4681 20.8261 27.7154 21.2384 28.048 21.5765C28.3805 21.9146 28.7888 22.1687 29.239 22.3177C29.2515 22.7631 29.3662 23.1996 29.5743 23.5936C29.7823 23.9876 30.0781 24.3285 30.4387 24.59C30.8261 24.883 31.277 25.0804 31.755 25.1664C32.233 25.2523 32.7245 25.2243 33.1896 25.0845C33.4827 25.4484 33.8536 25.7419 34.2751 25.9436C34.6965 26.1452 35.1578 26.2499 35.625 26.2499C36.0922 26.2499 36.5535 26.1452 36.9749 25.9436C37.3964 25.7419 37.7673 25.4484 38.0604 25.0845C38.5255 25.2243 39.017 25.2523 39.495 25.1664C39.9729 25.0804 40.4239 24.883 40.8112 24.59C41.1719 24.3285 41.4677 23.9876 41.6757 23.5936C41.8837 23.1996 41.9984 22.7631 42.011 22.3177C42.4612 22.1687 42.8694 21.9146 43.202 21.5765C43.5345 21.2384 43.7819 20.8261 43.9235 20.3735C44.0641 19.946 44.1021 19.4914 44.0344 19.0465C43.9667 18.6016 43.7952 18.1788 43.5339 17.8125C43.7952 17.4461 43.9667 17.0234 44.0344 16.5785C44.1021 16.1336 44.0641 15.679 43.9235 15.2514C43.7819 14.7989 43.5345 14.3865 43.202 14.0484C42.8694 13.7103 42.4612 13.4563 42.011 13.3072C41.9984 12.8618 41.8837 12.4253 41.6757 12.0314C41.4677 11.6374 41.1719 11.2965 40.8112 11.0349C40.4239 10.7419 39.973 10.5444 39.495 10.4585C39.017 10.3726 38.5255 10.4006 38.0604 10.5404C37.7673 10.1766 37.3964 9.88303 36.9749 9.68135C36.5535 9.47968 36.0922 9.375 35.625 9.375C35.1578 9.375 34.6965 9.47968 34.2751 9.68135C33.8536 9.88303 33.4827 10.1766 33.1896 10.5404C32.7245 10.4007 32.233 10.3726 31.755 10.4586C31.277 10.5445 30.8261 10.742 30.4387 11.0349C30.0781 11.2965 29.7823 11.6374 29.5743 12.0314C29.3663 12.4253 29.2515 12.8618 29.239 13.3072C28.7888 13.4563 28.3805 13.7103 28.048 14.0484C27.7154 14.3865 27.4681 14.7989 27.3265 15.2514C27.1859 15.679 27.1479 16.1336 27.2156 16.5785C27.2833 17.0234 27.4548 17.4461 27.7161 17.8125C27.4548 18.1788 27.2833 18.6016 27.2156 19.0465C27.1479 19.4914 27.1859 19.946 27.3265 20.3735ZM29.5674 17.0305C29.3648 16.9099 29.2094 16.7236 29.1271 16.5027C29.0447 16.2817 29.0403 16.0392 29.1146 15.8154C29.1909 15.5708 29.3477 15.3591 29.5594 15.2149C29.7712 15.0706 30.0254 15.0021 30.281 15.0206C30.4341 15.0247 30.5859 14.9912 30.7231 14.9231C30.8603 14.8549 30.9787 14.7542 31.0679 14.6298C31.1572 14.5053 31.2146 14.3609 31.2351 14.2091C31.2557 14.0573 31.2387 13.9028 31.1857 13.7591C31.103 13.5424 31.0952 13.3043 31.1635 13.0826C31.2317 12.8609 31.3722 12.6685 31.5624 12.5359C31.7722 12.3711 32.0309 12.2812 32.2976 12.2804C32.5643 12.2796 32.8236 12.3679 33.0343 12.5313C33.1549 12.6208 33.2952 12.6801 33.4435 12.7041C33.5917 12.7281 33.7436 12.7161 33.8862 12.6692C34.0289 12.6223 34.1582 12.5418 34.2633 12.4344C34.3683 12.3271 34.446 12.1961 34.4899 12.0525C34.6706 11.4609 35.1948 11.25 35.625 11.25C36.0552 11.25 36.5794 11.4609 36.7601 12.0525C36.8039 12.1961 36.8817 12.3271 36.9867 12.4344C37.0918 12.5418 37.2211 12.6223 37.3637 12.6692C37.5064 12.7161 37.6582 12.7281 37.8065 12.7041C37.9548 12.6801 38.0951 12.6208 38.2156 12.5313C38.4263 12.3677 38.6857 12.2793 38.9524 12.2802C39.2191 12.281 39.4779 12.371 39.6875 12.5359C39.8778 12.6685 40.0182 12.8609 40.0865 13.0826C40.1548 13.3043 40.1469 13.5424 40.0643 13.7591C40.0113 13.9028 39.9943 14.0573 40.0148 14.2091C40.0354 14.3609 40.0928 14.5053 40.182 14.6298C40.2713 14.7542 40.3897 14.8549 40.5269 14.9231C40.6641 14.9912 40.8159 15.0247 40.969 15.0206C41.2244 15.0026 41.4785 15.0712 41.6902 15.2154C41.9018 15.3596 42.0587 15.571 42.1353 15.8154C42.2096 16.0392 42.2053 16.2817 42.1229 16.5027C42.0406 16.7236 41.8852 16.9099 41.6825 17.0305C41.5533 17.1159 41.4473 17.2321 41.3739 17.3685C41.3005 17.505 41.2621 17.6575 41.2621 17.8125C41.2621 17.9674 41.3005 18.1199 41.3739 18.2564C41.4473 18.3928 41.5533 18.509 41.6825 18.5945C41.8852 18.7151 42.0406 18.9013 42.1229 19.1223C42.2053 19.3433 42.2096 19.5858 42.1353 19.8096C42.0589 20.0541 41.9022 20.2656 41.6904 20.4099C41.4787 20.5542 41.2245 20.6227 40.969 20.6043C40.8159 20.6002 40.6641 20.6337 40.5269 20.7018C40.3897 20.77 40.2713 20.8707 40.182 20.9952C40.0928 21.1196 40.0354 21.2641 40.0148 21.4159C39.9943 21.5676 40.0113 21.7222 40.0643 21.8659C40.1469 22.0826 40.1548 22.3207 40.0865 22.5423C40.0182 22.764 39.8778 22.9564 39.6875 23.0891C39.4778 23.2538 39.2191 23.3437 38.9524 23.3445C38.6857 23.3454 38.4264 23.2571 38.2156 23.0936C38.0951 23.0041 37.9548 22.9448 37.8065 22.9208C37.6582 22.8968 37.5064 22.9088 37.3637 22.9557C37.2211 23.0027 37.0918 23.0832 36.9867 23.1905C36.8817 23.2978 36.8039 23.4288 36.7601 23.5725C36.5794 24.164 36.0552 24.375 35.625 24.375C35.1948 24.375 34.6706 24.164 34.4899 23.5725C34.446 23.4288 34.3683 23.2978 34.2633 23.1905C34.1582 23.0832 34.0289 23.0027 33.8862 22.9557C33.7436 22.9088 33.5917 22.8968 33.4435 22.9208C33.2952 22.9448 33.1549 23.0041 33.0343 23.0936C32.8236 23.257 32.5643 23.3453 32.2976 23.3445C32.0309 23.3437 31.7722 23.2538 31.5624 23.0891C31.3722 22.9564 31.2317 22.764 31.1635 22.5423C31.0952 22.3207 31.103 22.0826 31.1857 21.8659C31.2387 21.7222 31.2557 21.5676 31.2351 21.4159C31.2146 21.2641 31.1572 21.1196 31.0679 20.9952C30.9787 20.8707 30.8603 20.77 30.7231 20.7018C30.5859 20.6337 30.4341 20.6002 30.281 20.6043C30.0254 20.623 29.771 20.5546 29.5592 20.4103C29.3475 20.266 29.1907 20.0543 29.1146 19.8096C29.0403 19.5858 29.0447 19.3433 29.1271 19.1223C29.2094 18.9013 29.3648 18.7151 29.5674 18.5945C29.6967 18.509 29.8027 18.3928 29.8761 18.2564C29.9494 18.1199 29.9878 17.9674 29.9878 17.8125C29.9878 17.6575 29.9494 17.505 29.8761 17.3685C29.8027 17.2321 29.6967 17.1159 29.5674 17.0305V17.0305Z" fill="black"/>
<path d="M16.2121 24.6494L10.5872 30.2744L11.913 31.6002L17.538 25.9753L16.2121 24.6494Z" fill="black"/>
<path d="M19.0245 27.4619L13.3995 33.0869L14.7254 34.4127L20.3503 28.7878L19.0245 27.4619Z" fill="black"/>
<path d="M21.837 30.2744L16.212 35.8994L17.5379 37.2252L23.1628 31.6003L21.837 30.2744Z" fill="black"/>
<path d="M24.6495 33.0869L19.0245 38.7119L20.3504 40.0377L25.9753 34.4128L24.6495 33.0869Z" fill="black"/>
<path d="M27.462 35.8994L24.6495 38.7119L25.9754 40.0377L28.7879 37.2252L27.462 35.8994Z" fill="black"/>
<path d="M23.1629 19.9623L21.837 21.2881L24.1222 23.5732L25.448 22.2474L23.1629 19.9623Z" fill="black"/>
<path d="M26.6785 23.4779L25.3527 24.8037L31.2121 30.6631L32.5379 29.3373L26.6785 23.4779Z" fill="black"/>
<path d="M11.9602 8.41037C12.9286 8.65137 13.8131 9.15153 14.5187 9.85718C15.2244 10.5628 15.7245 11.4473 15.9655 12.4157C16.0162 12.6185 16.1333 12.7986 16.2981 12.9272C16.4629 13.0559 16.666 13.1258 16.875 13.1258C17.0841 13.1258 17.2871 13.0559 17.4519 12.9272C17.6167 12.7986 17.7338 12.6185 17.7845 12.4157C18.0255 11.4473 18.5257 10.5628 19.2313 9.85718C19.937 9.15153 20.8215 8.65137 21.7899 8.41037C21.9927 8.35965 22.1727 8.24259 22.3014 8.0778C22.43 7.91301 22.4999 7.70994 22.4999 7.50088C22.4999 7.29181 22.43 7.08875 22.3014 6.92396C22.1727 6.75916 21.9927 6.64211 21.7899 6.59138C20.8215 6.35038 19.937 5.85022 19.2313 5.14457C18.5257 4.43892 18.0255 3.55443 17.7845 2.58603C17.7338 2.38321 17.6167 2.20317 17.4519 2.07451C17.2871 1.94586 17.0841 1.87598 16.875 1.87598C16.666 1.87598 16.4629 1.94586 16.2981 2.07451C16.1333 2.20317 16.0162 2.38321 15.9655 2.58603C15.7245 3.55443 15.2244 4.43892 14.5187 5.14457C13.8131 5.85022 12.9286 6.35038 11.9602 6.59138C11.7574 6.64211 11.5773 6.75916 11.4487 6.92396C11.32 7.08875 11.2501 7.29181 11.2501 7.50088C11.2501 7.70994 11.32 7.91301 11.4487 8.0778C11.5773 8.24259 11.7574 8.35965 11.9602 8.41037ZM16.875 5.17822C17.4643 6.11757 18.2583 6.91157 19.1977 7.50088C18.2583 8.09018 17.4643 8.88419 16.875 9.82353C16.2857 8.88419 15.4917 8.09018 14.5524 7.50088C15.4917 6.91157 16.2857 6.11757 16.875 5.17822Z" fill="black"/>
<path d="M46.72 27.8916L39.6497 34.9619L40.9755 36.2877L48.0458 29.2175L46.72 27.8916Z" fill="black"/>
<path d="M49.962 24.6499L48.087 26.5249L49.4129 27.8507L51.2878 25.9758L49.962 24.6499Z" fill="black"/>
<path d="M57.1875 39.375H48.75C48.5013 39.375 48.2629 39.4738 48.0871 39.6496C47.9112 39.8254 47.8125 40.0639 47.8125 40.3125V41.201C45.5372 39.566 42.8421 38.615 40.0446 38.46C37.247 38.3051 34.4634 38.9526 32.0215 40.3263L30.3794 41.25H22.5C21.6469 41.2497 20.8099 41.4822 20.0793 41.9226C19.3487 42.3629 18.7521 42.9944 18.354 43.7489C17.9559 44.5034 17.7713 45.3522 17.8202 46.2039C17.869 47.0556 18.1495 47.8777 18.6313 48.5817L8.63188 43.6139C8.03378 43.3178 7.37643 43.1608 6.70907 43.1548L6.30606 43.1517C5.31257 43.1441 4.34578 43.4732 3.56319 44.0852C2.7806 44.6973 2.22835 45.5564 1.9964 46.5224C1.76445 47.4885 1.86648 48.5046 2.28586 49.4053C2.70524 50.306 3.41726 51.0381 4.30591 51.4824L15.8096 57.2344C16.9818 57.8187 18.2733 58.1236 19.5831 58.125H57.1875C57.4361 58.125 57.6746 58.0262 57.8504 57.8504C58.0262 57.6746 58.125 57.4362 58.125 57.1875V40.3125C58.125 40.0639 58.0262 39.8254 57.8504 39.6496C57.6746 39.4738 57.4361 39.375 57.1875 39.375ZM16.6481 55.5572L5.1445 49.8053C4.63627 49.5512 4.22871 49.133 3.98785 48.6183C3.74699 48.1037 3.68694 47.5228 3.81743 46.9698C3.94792 46.4168 4.26131 45.924 4.70682 45.5713C5.15233 45.2186 5.70387 45.0267 6.27208 45.0266H6.29188L6.69466 45.0297C7.07746 45.0332 7.45452 45.1232 7.79763 45.293L18.3328 50.527C18.4624 50.5914 18.6052 50.625 18.75 50.625H30.9375C31.1861 50.625 31.4246 50.5262 31.6004 50.3504C31.7762 50.1746 31.875 49.9362 31.875 49.6875C31.875 49.4389 31.7762 49.2004 31.6004 49.0246C31.4246 48.8488 31.1861 48.75 30.9375 48.75H22.5C21.754 48.75 21.0387 48.4537 20.5112 47.9263C19.9838 47.3988 19.6875 46.6834 19.6875 45.9375C19.6875 45.1916 19.9838 44.4762 20.5112 43.9488C21.0387 43.4213 21.754 43.125 22.5 43.125H30.6249C30.7859 43.125 30.9442 43.0836 31.0845 43.0047L32.9407 41.9605C35.1701 40.7066 37.7233 40.1475 40.2727 40.355C42.8222 40.5624 45.2514 41.5271 47.2487 43.125L47.8125 43.5756V56.25H19.5829C18.5643 56.2488 17.5598 56.0117 16.6481 55.5572V55.5572ZM56.25 56.25H49.6875V41.25H56.25V56.25Z" fill="black"/>
<path d="M52.9687 53.4375C53.2469 53.4375 53.5188 53.355 53.75 53.2005C53.9813 53.046 54.1615 52.8264 54.2679 52.5694C54.3744 52.3124 54.4022 52.0297 54.348 51.7569C54.2937 51.4841 54.1598 51.2335 53.9631 51.0369C53.7664 50.8402 53.5159 50.7063 53.2431 50.652C52.9703 50.5978 52.6876 50.6256 52.4306 50.732C52.1736 50.8385 51.954 51.0187 51.7995 51.25C51.645 51.4812 51.5625 51.7531 51.5625 52.0312C51.5629 52.4041 51.7112 52.7615 51.9748 53.0252C52.2385 53.2888 52.5959 53.4371 52.9687 53.4375Z" fill="black"/>
<path d="M21.2879 23.7123L19.962 25.0381L27.4621 32.5381L28.7879 31.2123L21.2879 23.7123Z" fill="black"/>
</svg>
