<svg width="60" height="60" viewBox="0 0 60 60" fill="none" xmlns="http://www.w3.org/2000/svg">
<path d="M15.9375 33.7501H35.625C35.7909 33.7501 35.9538 33.7061 36.0972 33.6225C36.2405 33.539 36.3591 33.4189 36.4408 33.2745C36.5226 33.1301 36.5645 32.9667 36.5624 32.8008C36.5604 32.6349 36.5143 32.4725 36.4289 32.3303L30.8039 22.9553C30.7206 22.8164 30.6028 22.7016 30.4619 22.6218C30.321 22.542 30.1619 22.5001 30 22.5001C29.8381 22.5001 29.679 22.542 29.5381 22.6218C29.3972 22.7016 29.2794 22.8164 29.1961 22.9553L28.125 24.7407L24.7102 19.0494C24.6269 18.9106 24.509 18.7957 24.3682 18.7159C24.2273 18.6362 24.0682 18.5942 23.9063 18.5942C23.7444 18.5942 23.5852 18.6362 23.4443 18.7159C23.3035 18.7957 23.1856 18.9106 23.1024 19.0494L15.1336 32.3303C15.0482 32.4725 15.0022 32.6349 15.0001 32.8008C14.998 32.9667 15.0399 33.1301 15.1217 33.2745C15.2034 33.4189 15.322 33.539 15.4653 33.6225C15.6087 33.7061 15.7716 33.7501 15.9375 33.7501V33.7501ZM30 25.2599L33.9692 31.8751H32.4059L29.2184 26.5628L30 25.2599ZM23.9063 21.3539L30.2191 31.8751H17.5934L23.9063 21.3539Z" fill="black"/>
<path d="M34.2188 21.5625C34.8677 21.5625 35.5021 21.3701 36.0417 21.0095C36.5813 20.649 37.0019 20.1365 37.2502 19.5369C37.4986 18.9374 37.5636 18.2776 37.437 17.6411C37.3103 17.0046 36.9978 16.4199 36.5389 15.9611C36.0801 15.5022 35.4954 15.1897 34.8589 15.063C34.2224 14.9364 33.5626 15.0014 32.9631 15.2498C32.3635 15.4981 31.851 15.9187 31.4905 16.4583C31.1299 16.9979 30.9375 17.6323 30.9375 18.2813C30.9385 19.1512 31.2845 19.9852 31.8997 20.6004C32.5148 21.2155 33.3488 21.5615 34.2188 21.5625V21.5625ZM34.2188 16.875C34.4969 16.875 34.7688 16.9575 35 17.112C35.2313 17.2665 35.4115 17.4861 35.518 17.7431C35.6244 18.0001 35.6522 18.2828 35.598 18.5556C35.5437 18.8284 35.4098 19.079 35.2131 19.2756C35.0165 19.4723 34.7659 19.6062 34.4931 19.6605C34.2203 19.7147 33.9376 19.6869 33.6806 19.5805C33.4236 19.474 33.204 19.2938 33.0495 19.0625C32.895 18.8313 32.8125 18.5594 32.8125 18.2813C32.8129 17.9084 32.9612 17.551 33.2248 17.2873C33.4885 17.0237 33.8459 16.8754 34.2188 16.875Z" fill="black"/>
<path d="M15.9375 37.5H36.5625C36.8111 37.5 37.0496 37.4012 37.2254 37.2254C37.4012 37.0496 37.5 36.8111 37.5 36.5625C37.5 36.3139 37.4012 36.0754 37.2254 35.8996C37.0496 35.7238 36.8111 35.625 36.5625 35.625H15.9375C15.6889 35.625 15.4504 35.7238 15.2746 35.8996C15.0988 36.0754 15 36.3139 15 36.5625C15 36.8111 15.0988 37.0496 15.2746 37.2254C15.4504 37.4012 15.6889 37.5 15.9375 37.5Z" fill="black"/>
<path d="M15.9375 40.3125H32.8125C33.0611 40.3125 33.2996 40.2137 33.4754 40.0379C33.6512 39.8621 33.75 39.6236 33.75 39.375C33.75 39.1264 33.6512 38.8879 33.4754 38.7121C33.2996 38.5363 33.0611 38.4375 32.8125 38.4375H15.9375C15.6889 38.4375 15.4504 38.5363 15.2746 38.7121C15.0988 38.8879 15 39.1264 15 39.375C15 39.6236 15.0988 39.8621 15.2746 40.0379C15.4504 40.2137 15.6889 40.3125 15.9375 40.3125Z" fill="black"/>
<path d="M36.5625 40.3125C36.8111 40.3125 37.0496 40.2137 37.2254 40.0379C37.4012 39.8621 37.5 39.6236 37.5 39.375C37.5 39.1264 37.4012 38.8879 37.2254 38.7121C37.0496 38.5363 36.8111 38.4375 36.5625 38.4375H35.625C35.3764 38.4375 35.1379 38.5363 34.9621 38.7121C34.7863 38.8879 34.6875 39.1264 34.6875 39.375C34.6875 39.6236 34.7863 39.8621 34.9621 40.0379C35.1379 40.2137 35.3764 40.3125 35.625 40.3125H36.5625Z" fill="black"/>
<path d="M41.25 0.9375H7.5C7.25136 0.9375 7.0129 1.03627 6.83709 1.21209C6.66127 1.3879 6.5625 1.62636 6.5625 1.875V58.125C6.5625 58.3736 6.66127 58.6121 6.83709 58.7879C7.0129 58.9637 7.25136 59.0625 7.5 59.0625H41.25C41.4986 59.0625 41.7371 58.9637 41.9129 58.7879C42.0887 58.6121 42.1875 58.3736 42.1875 58.125V1.875C42.1875 1.62636 42.0887 1.3879 41.9129 1.21209C41.7371 1.03627 41.4986 0.9375 41.25 0.9375ZM40.3125 2.8125V53.4375H12.1875V2.8125H40.3125ZM8.4375 2.8125H10.3125V53.4375H8.4375V2.8125ZM40.3125 57.1875H8.4375V55.3125H40.3125V57.1875Z" fill="black"/>
<path d="M31.875 50.625C31.875 50.8736 31.9738 51.1121 32.1496 51.2879C32.3254 51.4637 32.5639 51.5625 32.8125 51.5625H38.4375C38.6861 51.5625 38.9246 51.4637 39.1004 51.2879C39.2762 51.1121 39.375 50.8736 39.375 50.625C39.375 50.3764 39.2762 50.1379 39.1004 49.9621C38.9246 49.7863 38.6861 49.6875 38.4375 49.6875H32.8125C32.5639 49.6875 32.3254 49.7863 32.1496 49.9621C31.9738 50.1379 31.875 50.3764 31.875 50.625Z" fill="black"/>
<path d="M30 49.6875H29.0625C28.8139 49.6875 28.5754 49.7863 28.3996 49.9621C28.2238 50.1379 28.125 50.3764 28.125 50.625C28.125 50.8736 28.2238 51.1121 28.3996 51.2879C28.5754 51.4637 28.8139 51.5625 29.0625 51.5625H30C30.2486 51.5625 30.4871 51.4637 30.6629 51.2879C30.8387 51.1121 30.9375 50.8736 30.9375 50.625C30.9375 50.3764 30.8387 50.1379 30.6629 49.9621C30.4871 49.7863 30.2486 49.6875 30 49.6875Z" fill="black"/>
<path d="M48.75 0.9375H46.875C46.1293 0.938337 45.4145 1.23492 44.8872 1.76219C44.3599 2.28945 44.0633 3.00434 44.0625 3.75V52.5C44.0625 52.6456 44.0964 52.7891 44.1615 52.9193L46.974 58.5443C47.0519 58.7 47.1716 58.8309 47.3197 58.9224C47.4678 59.014 47.6384 59.0624 47.8125 59.0624C47.9866 59.0624 48.1572 59.014 48.3053 58.9224C48.4534 58.8309 48.5731 58.7 48.651 58.5443L51.4635 52.9193C51.5286 52.7891 51.5625 52.6456 51.5625 52.5V3.75C51.5617 3.00434 51.2651 2.28945 50.7378 1.76219C50.2105 1.23492 49.4957 0.938337 48.75 0.9375V0.9375ZM49.6875 52.2786L49.5769 52.5H46.0481L45.9375 52.2786V51.5625H49.6875V52.2786ZM49.6875 9.375H45.9375V8.4375H49.6875V9.375ZM45.9375 11.25H49.6875V49.6875H45.9375V11.25ZM45.9375 3.75C45.9378 3.50145 46.0366 3.26315 46.2124 3.0874C46.3881 2.91164 46.6264 2.81278 46.875 2.8125H48.75C48.9986 2.81278 49.2369 2.91164 49.4126 3.0874C49.5884 3.26315 49.6872 3.50145 49.6875 3.75V6.5625H45.9375V3.75ZM47.8125 56.0286L46.9856 54.375H48.6394L47.8125 56.0286Z" fill="black"/>
<path d="M47.8125 13.125C47.5639 13.125 47.3254 13.2238 47.1496 13.3996C46.9738 13.5754 46.875 13.8139 46.875 14.0625V37.5C46.875 37.7486 46.9738 37.9871 47.1496 38.1629C47.3254 38.3387 47.5639 38.4375 47.8125 38.4375C48.0611 38.4375 48.2996 38.3387 48.4754 38.1629C48.6512 37.9871 48.75 37.7486 48.75 37.5V14.0625C48.75 13.8139 48.6512 13.5754 48.4754 13.3996C48.2996 13.2238 48.0611 13.125 47.8125 13.125Z" fill="black"/>
<path d="M47.8125 39.375C47.5639 39.375 47.3254 39.4738 47.1496 39.6496C46.9738 39.8254 46.875 40.0639 46.875 40.3125V41.25C46.875 41.4986 46.9738 41.7371 47.1496 41.9129C47.3254 42.0887 47.5639 42.1875 47.8125 42.1875C48.0611 42.1875 48.2996 42.0887 48.4754 41.9129C48.6512 41.7371 48.75 41.4986 48.75 41.25V40.3125C48.75 40.0639 48.6512 39.8254 48.4754 39.6496C48.2996 39.4738 48.0611 39.375 47.8125 39.375Z" fill="black"/>
</svg>
