<svg width="60" height="60" viewBox="0 0 60 60" fill="none" xmlns="http://www.w3.org/2000/svg">
<path d="M34.9077 19.1905L38.8848 15.2139L40.2104 16.5396L36.2334 20.5166L34.9077 19.1905Z" fill="black"/>
<path d="M38.6416 23.589L44.0757 22.1328L44.5609 23.9442L39.1268 25.3999L38.6416 23.589Z" fill="black"/>
<path d="M30.0238 16.297L31.4799 10.8638L33.2909 11.349L31.8352 16.7822L30.0238 16.297Z" fill="black"/>
<path d="M15 7.35596H16.875V18.606H15V7.35596Z" fill="black"/>
<path d="M18.75 7.35596H20.625V14.856H18.75V7.35596Z" fill="black"/>
<path d="M22.5 7.35596H24.375V11.106H22.5V7.35596Z" fill="black"/>
<path d="M43.125 35.481H45V46.731H43.125V35.481Z" fill="black"/>
<path d="M39.375 39.231H41.25V46.731H39.375V39.231Z" fill="black"/>
<path d="M35.625 42.981H37.5V46.731H35.625V42.981Z" fill="black"/>
<path d="M58.125 52.3558V25.1683C58.1218 22.5806 56.0252 20.4836 53.4375 20.4808H49.6875V2.64862L46.0716 0.117188L43.3932 1.99219L40.7158 0.117188L38.036 1.99219L35.3586 0.117188L32.6802 1.99219L30 0.117188L27.3225 1.99219L24.6432 0.117188L21.9649 1.99219L19.2851 0.117188L16.6068 1.99219L13.9265 0.117188L10.3125 2.64862V20.4808H6.5625C3.97476 20.4836 1.8782 22.5806 1.875 25.1683V52.3558H0V55.1683C0.00320435 57.7556 2.09976 59.8526 4.6875 59.8558H55.3125C57.9002 59.8526 59.9968 57.7556 60 55.1683V52.3558H58.125ZM49.6875 27.9808H51.5625V48.6058H49.6875V27.9808ZM12.1875 3.62549L13.9284 2.40646L16.6086 4.28146L19.2874 2.40646L21.9667 4.28146L24.6451 2.40646L27.3244 4.28146L30.0018 2.40646L32.6802 4.28146L35.3586 2.40646L38.036 4.28146L40.7158 2.40646L43.3932 4.28146L46.0716 2.40646L47.8125 3.62549V48.6058H12.1875V3.62549ZM3.75 25.1683C3.75 23.6147 5.00931 22.3558 6.5625 22.3558H10.3125V26.1058H6.5625V50.4808H53.4375V26.1058H49.6875V22.3558H53.4375C54.9907 22.3558 56.25 23.6147 56.25 25.1683V52.3558H33.75V53.2933C33.75 53.811 33.3302 54.2308 32.8125 54.2308H27.1875C26.6698 54.2308 26.25 53.811 26.25 53.2933V52.3558H3.75V25.1683ZM10.3125 27.9808V48.6058H8.4375V27.9808H10.3125ZM58.125 55.1683C58.125 56.7215 56.8657 57.9808 55.3125 57.9808H4.6875C3.13431 57.9808 1.875 56.7215 1.875 55.1683V54.2308H24.5352C24.9339 55.3537 25.9959 56.104 27.1875 56.1058H32.8125C34.0041 56.104 35.0661 55.3537 35.4648 54.2308H58.125V55.1683Z" fill="black"/>
<path d="M39.2409 28.8247L26.5952 16.1826L22.8328 25.9614L20.9857 27.8084L16.3463 32.4497L22.9743 39.0781L24.3 37.7524L27.6151 41.0667C28.7133 42.1653 30.494 42.1657 31.593 41.0676C32.6917 39.9694 32.6921 38.1882 31.594 37.0896L28.2798 33.7754L29.4658 32.5898L39.2409 28.8247ZM22.9743 36.4268L18.9977 32.4497L21.6486 29.7979L25.6266 33.7754L22.9743 36.4268ZM30.2664 38.4153C30.51 38.6506 30.6079 38.9994 30.5219 39.3271C30.4363 39.6549 30.1799 39.9108 29.8522 39.9964C29.5244 40.0825 29.1761 39.9845 28.9408 39.741L25.6256 36.4268L26.9522 35.1057L30.2664 38.4153ZM26.9522 32.4488L22.9743 28.4713L24.4405 27.0051L27.3093 19.5481L35.8763 28.1147L28.4175 30.9807L26.9522 32.4488Z" fill="black"/>
<path d="M15.0197 36.4268L16.3453 35.1011L20.3233 39.0781L18.9976 40.4038L15.0197 36.4268Z" fill="black"/>
</svg>
