<svg width="60" height="60" viewBox="0 0 60 60" fill="none" xmlns="http://www.w3.org/2000/svg">
<path d="M37.5 56.25H8.4375V45C8.4375 44.7514 8.33873 44.5129 8.16291 44.3371C7.9871 44.1613 7.74864 44.0625 7.5 44.0625C7.25136 44.0625 7.0129 44.1613 6.83709 44.3371C6.66127 44.5129 6.5625 44.7514 6.5625 45V57.1875C6.5625 57.4361 6.66127 57.6746 6.83709 57.8504C7.0129 58.0262 7.25136 58.125 7.5 58.125H37.5C37.7486 58.125 37.9871 58.0262 38.1629 57.8504C38.3387 57.6746 38.4375 57.4361 38.4375 57.1875C38.4375 56.9389 38.3387 56.7004 38.1629 56.5246C37.9871 56.3488 37.7486 56.25 37.5 56.25Z" fill="black"/>
<path d="M47.8125 9.375H49.6875C50.6821 9.375 51.6359 8.97991 52.3391 8.27665C53.0424 7.57339 53.4375 6.61956 53.4375 5.625C53.4375 4.63044 53.0424 3.67661 52.3391 2.97335C51.6359 2.27009 50.6821 1.875 49.6875 1.875H16.875C15.6323 1.87649 14.4408 2.37083 13.5621 3.24958C12.6833 4.12834 12.189 5.31975 12.1875 6.5625V7.01437C12.1706 8.94947 11.7009 10.8537 10.8159 12.5747C8.02589 18.1817 6.57016 24.3578 6.5625 30.6206V41.25C6.5625 41.4986 6.66127 41.7371 6.83709 41.9129C7.0129 42.0887 7.25136 42.1875 7.5 42.1875C7.74864 42.1875 7.9871 42.0887 8.16291 41.9129C8.33873 41.7371 8.4375 41.4986 8.4375 41.25V30.6206C8.44461 24.6483 9.83298 18.7586 12.4941 13.4119C13.5091 11.431 14.0462 9.24007 14.0625 7.01437V6.5625C14.0625 5.81658 14.3588 5.10121 14.8863 4.57376C15.4137 4.04632 16.1291 3.75 16.875 3.75H46.4409C46.1102 4.31946 45.9365 4.96647 45.9375 5.625V10.0706C42.2582 16.2942 40.3157 23.3908 40.3125 30.6206V57.1875C40.3125 57.4361 40.4113 57.6746 40.5871 57.8504C40.7629 58.0262 41.0014 58.125 41.25 58.125H52.5C52.7486 58.125 52.9871 58.0262 53.1629 57.8504C53.3387 57.6746 53.4375 57.4361 53.4375 57.1875V40.3125C53.4375 40.0639 53.3387 39.8254 53.1629 39.6496C52.9871 39.4738 52.7486 39.375 52.5 39.375C52.2514 39.375 52.0129 39.4738 51.8371 39.6496C51.6613 39.8254 51.5625 40.0639 51.5625 40.3125V54.6562L47.8125 50.2819V45.9375C47.8125 45.6889 47.7137 45.4504 47.5379 45.2746C47.3621 45.0988 47.1236 45 46.875 45C46.6264 45 46.3879 45.0988 46.2121 45.2746C46.0363 45.4504 45.9375 45.6889 45.9375 45.9375V50.2791L42.1875 54.6562V30.6206C42.1912 24.8911 43.4723 19.2345 45.9375 14.0625V23.4375C45.9375 23.6861 46.0363 23.9246 46.2121 24.1004C46.3879 24.2762 46.6264 24.375 46.875 24.375C47.1236 24.375 47.3621 24.2762 47.5379 24.1004C47.7137 23.9246 47.8125 23.6861 47.8125 23.4375V14.0625C50.2781 19.2354 51.5592 24.893 51.5625 30.6234V36.5625C51.5625 36.8111 51.6613 37.0496 51.8371 37.2254C52.0129 37.4012 52.2514 37.5 52.5 37.5C52.7486 37.5 52.9871 37.4012 53.1629 37.2254C53.3387 37.0496 53.4375 36.8111 53.4375 36.5625V30.6206C53.4343 23.3908 51.4918 16.2942 47.8125 10.0706V9.375ZM46.875 52.0659L50.4619 56.25H43.2881L46.875 52.0659ZM49.6875 3.75C50.1848 3.75 50.6617 3.94754 51.0133 4.29917C51.365 4.65081 51.5625 5.12772 51.5625 5.625C51.5625 6.12228 51.365 6.59919 51.0133 6.95083C50.6617 7.30246 50.1848 7.5 49.6875 7.5H47.8125V5.625C47.8125 5.12772 48.01 4.65081 48.3617 4.29917C48.7133 3.94754 49.1902 3.75 49.6875 3.75Z" fill="black"/>
<path d="M46.875 28.125C46.6264 28.125 46.3879 28.2238 46.2121 28.3996C46.0363 28.5754 45.9375 28.8139 45.9375 29.0625V40.3125C45.9375 40.5611 46.0363 40.7996 46.2121 40.9754C46.3879 41.1512 46.6264 41.25 46.875 41.25C47.1236 41.25 47.3621 41.1512 47.5379 40.9754C47.7137 40.7996 47.8125 40.5611 47.8125 40.3125V29.0625C47.8125 28.8139 47.7137 28.5754 47.5379 28.3996C47.3621 28.2238 47.1236 28.125 46.875 28.125Z" fill="black"/>
<path d="M14.0626 32.2725C13.312 32.5968 12.6599 33.1129 12.1718 33.7689C11.6837 34.4249 11.3768 35.1978 11.2818 36.0099C11.1868 36.822 11.3071 37.6449 11.6307 38.3958C11.9542 39.1467 12.4696 39.7993 13.1251 40.2881V42.1875C13.1263 42.5808 13.2105 42.9694 13.372 43.3281C13.5335 43.6867 13.7688 44.0072 14.0626 44.2688V45.9375C14.0641 47.1802 14.5584 48.3717 15.4372 49.2504C16.3159 50.1292 17.5074 50.6235 18.7501 50.625H30.0001C31.2428 50.6235 32.4343 50.1292 33.313 49.2504C34.1918 48.3717 34.6861 47.1802 34.6876 45.9375V44.2688C34.9813 44.0072 35.2166 43.6867 35.3782 43.3281C35.5397 42.9694 35.6239 42.5808 35.6251 42.1875V40.2881C36.2806 39.7993 36.796 39.1467 37.1195 38.3958C37.443 37.6449 37.5634 36.822 37.4684 36.0099C37.3734 35.1978 37.0664 34.4249 36.5783 33.7689C36.0903 33.1129 35.4382 32.5968 34.6876 32.2725V30.9375C34.6861 29.6948 34.1918 28.5033 33.313 27.6246C32.4343 26.7458 31.2428 26.2515 30.0001 26.25H28.1251C27.8764 26.25 27.638 26.3488 27.4622 26.5246C27.2864 26.7004 27.1876 26.9389 27.1876 27.1875C27.1876 27.4361 27.2864 27.6746 27.4622 27.8504C27.638 28.0262 27.8764 28.125 28.1251 28.125H30.0001C30.746 28.125 31.4614 28.4213 31.9888 28.9488C32.5163 29.4762 32.8126 30.1916 32.8126 30.9375V31.875H15.9376V30.9375C15.9376 30.1916 16.2339 29.4762 16.7614 28.9488C17.2888 28.4213 18.0042 28.125 18.7501 28.125H24.3751C24.6237 28.125 24.8622 28.0262 25.038 27.8504C25.2138 27.6746 25.3126 27.4361 25.3126 27.1875C25.3126 26.9389 25.2138 26.7004 25.038 26.5246C24.8622 26.3488 24.6237 26.25 24.3751 26.25H18.7501C17.5074 26.2515 16.3159 26.7458 15.4372 27.6246C14.5584 28.5033 14.0641 29.6948 14.0626 30.9375V32.2725ZM32.8126 33.75V33.9713C32.8121 34.2331 32.7273 34.4879 32.5707 34.6978L31.5817 36.0159C31.4814 36.1494 31.3546 36.2607 31.2093 36.3428C31.064 36.4249 30.9032 36.4761 30.7372 36.4931C30.5711 36.51 30.4033 36.4925 30.2444 36.4415C30.0854 36.3906 29.9387 36.3073 29.8135 36.1969L28.9276 35.4169C28.6217 35.1474 28.2654 34.9412 27.8794 34.8102C27.4933 34.6792 27.0852 34.626 26.6785 34.6537C26.2717 34.6813 25.8745 34.7892 25.5097 34.9712C25.145 35.1532 24.8199 35.4057 24.5532 35.7141L24.2401 36.0769C24.1313 36.2027 23.9977 36.3048 23.8476 36.3767C23.6976 36.4486 23.5343 36.4888 23.368 36.4948C23.2018 36.5008 23.036 36.4724 22.8812 36.4115C22.7264 36.3506 22.5858 36.2583 22.4682 36.1406L21.5401 35.2116C21.0546 34.7232 20.4195 34.4117 19.7361 34.3267C19.0528 34.2418 18.3607 34.3883 17.7704 34.7428C17.5903 34.851 17.3852 34.9103 17.1752 34.9148C16.9651 34.9194 16.7576 34.869 16.573 34.7687C16.3885 34.6684 16.2333 34.5217 16.1228 34.343C16.0123 34.1643 15.9504 33.9599 15.9432 33.75H32.8126ZM32.8126 45.9375C32.8126 46.6834 32.5163 47.3988 31.9888 47.9262C31.4614 48.4537 30.746 48.75 30.0001 48.75H18.7501C18.0042 48.75 17.2888 48.4537 16.7614 47.9262C16.2339 47.3988 15.9376 46.6834 15.9376 45.9375V45H17.4245L20.8998 48.4753C21.0756 48.6511 21.314 48.7499 21.5626 48.75C21.6128 48.7501 21.663 48.7461 21.7126 48.7378C21.8592 48.714 21.998 48.6556 22.1177 48.5676C22.2373 48.4796 22.3343 48.3644 22.4007 48.2316L23.6945 45.645L26.5248 48.4753C26.7006 48.6511 26.939 48.7499 27.1876 48.75C27.2378 48.7501 27.288 48.7461 27.3376 48.7378C27.4842 48.714 27.623 48.6556 27.7427 48.5676C27.8623 48.4796 27.9593 48.3644 28.0257 48.2316L29.642 45H32.8126V45.9375ZM20.0757 45H21.9207L21.3057 46.23L20.0757 45ZM25.7007 45H27.5457L26.9307 46.23L25.7007 45ZM35.6251 36.5625C35.6251 37.3084 35.3288 38.0238 34.8013 38.5512C34.2739 39.0787 33.5585 39.375 32.8126 39.375H30.9376C30.6889 39.375 30.4505 39.4738 30.2747 39.6496C30.0989 39.8254 30.0001 40.0639 30.0001 40.3125C30.0001 40.5611 30.0989 40.7996 30.2747 40.9754C30.4505 41.1512 30.6889 41.25 30.9376 41.25H32.8126C33.1274 41.2503 33.4415 41.2189 33.7501 41.1563V42.1875C33.7501 42.4361 33.6513 42.6746 33.4755 42.8504C33.2997 43.0262 33.0612 43.125 32.8126 43.125H15.9376C15.689 43.125 15.4505 43.0262 15.2747 42.8504C15.0989 42.6746 15.0001 42.4361 15.0001 42.1875V41.1563C15.3087 41.2189 15.6227 41.2503 15.9376 41.25H27.1876C27.4362 41.25 27.6747 41.1512 27.8505 40.9754C28.0263 40.7996 28.1251 40.5611 28.1251 40.3125C28.1251 40.0639 28.0263 39.8254 27.8505 39.6496C27.6747 39.4738 27.4362 39.375 27.1876 39.375H15.9376C15.3595 39.3775 14.7949 39.201 14.3212 38.8697C13.8474 38.5385 13.4878 38.0688 13.2916 37.5251C13.0954 36.9813 13.0723 36.3902 13.2255 35.8328C13.3786 35.2754 13.7005 34.7791 14.147 34.4119C14.2574 34.8847 14.478 35.3248 14.7907 35.6963C15.1035 36.0677 15.4996 36.36 15.9467 36.5494C16.3939 36.7387 16.8794 36.8197 17.3638 36.7859C17.8482 36.752 18.3177 36.6041 18.7342 36.3544C18.9654 36.2145 19.237 36.1563 19.5053 36.1893C19.7736 36.2223 20.023 36.3445 20.2135 36.5363L21.1417 37.4663C21.4416 37.7661 21.8001 38.0009 22.1947 38.156C22.5894 38.3111 23.0118 38.3833 23.4356 38.368C23.8594 38.3527 24.2755 38.2503 24.658 38.067C25.0404 37.8838 25.381 37.6238 25.6585 37.3031L25.9688 36.9375C26.0735 36.8164 26.2011 36.7172 26.3443 36.6458C26.4876 36.5743 26.6435 36.532 26.8032 36.5213C26.9628 36.5098 27.1231 36.5305 27.2747 36.582C27.4262 36.6335 27.5658 36.7149 27.6854 36.8213L28.5704 37.6013C29.1351 38.0979 29.8613 38.3718 30.6132 38.3719C30.7182 38.3719 30.8223 38.3662 30.9273 38.3559C31.3513 38.3123 31.7616 38.1815 32.1327 37.9718C32.5037 37.762 32.8275 37.4779 33.0835 37.1372L34.0735 35.8181C34.3743 35.4142 34.5721 34.9431 34.6501 34.4456C34.9555 34.7074 35.2007 35.0321 35.369 35.3975C35.5372 35.7629 35.6246 36.1603 35.6251 36.5625V36.5625Z" fill="black"/>
<path d="M16.9228 12.8288L15.0478 18.4538C15.0009 18.5947 14.9881 18.7448 15.0105 18.8916C15.0329 19.0385 15.09 19.1779 15.1768 19.2983C15.2637 19.4188 15.378 19.517 15.5103 19.5846C15.6425 19.6523 15.7889 19.6875 15.9375 19.6875H35.625C35.8217 19.6874 36.0133 19.6253 36.1728 19.5103C36.3323 19.3952 36.4516 19.2329 36.5137 19.0462L38.3887 13.4212C38.4356 13.2804 38.4484 13.1304 38.426 12.9836C38.4037 12.8369 38.3467 12.6975 38.2599 12.577C38.1732 12.4566 38.059 12.3584 37.9269 12.2907C37.7948 12.223 37.6484 12.1876 37.5 12.1875H17.8125C17.6156 12.1875 17.4238 12.2494 17.2641 12.3645C17.1044 12.4796 16.985 12.642 16.9228 12.8288V12.8288ZM36.1987 14.0625L34.949 17.8125H17.2378L18.4884 14.0625H36.1987Z" fill="black"/>
<path d="M19.6875 21.5625C19.4389 21.5625 19.2004 21.6613 19.0246 21.8371C18.8488 22.0129 18.75 22.2514 18.75 22.5C18.75 22.7486 18.8488 22.9871 19.0246 23.1629C19.2004 23.3387 19.4389 23.4375 19.6875 23.4375H30.9375C31.1861 23.4375 31.4246 23.3387 31.6004 23.1629C31.7762 22.9871 31.875 22.7486 31.875 22.5C31.875 22.2514 31.7762 22.0129 31.6004 21.8371C31.4246 21.6613 31.1861 21.5625 30.9375 21.5625H19.6875Z" fill="black"/>
<path d="M33.75 10.3125C33.9986 10.3125 34.2371 10.2137 34.4129 10.0379C34.5887 9.8621 34.6875 9.62364 34.6875 9.375C34.6875 9.12636 34.5887 8.8879 34.4129 8.71209C34.2371 8.53627 33.9986 8.4375 33.75 8.4375H22.5C22.2514 8.4375 22.0129 8.53627 21.8371 8.71209C21.6613 8.8879 21.5625 9.12636 21.5625 9.375C21.5625 9.62364 21.6613 9.8621 21.8371 10.0379C22.0129 10.2137 22.2514 10.3125 22.5 10.3125H33.75Z" fill="black"/>
</svg>
