<svg width="60" height="60" viewBox="0 0 60 60" fill="none" xmlns="http://www.w3.org/2000/svg">
<path d="M58.125 0.351562V19.9283L56.25 18.9908V0.351562H54.375V19.1016L53.4375 19.8047L52.5 19.1016V0.351562H50.625V18.9908L48.75 19.9283V0.351562H46.875V21.7172L53.4375 32.1075L60 21.7172V0.351562H58.125ZM53.4375 28.5956L51.5858 25.6641H55.2892L53.4375 28.5956ZM56.4729 23.7891H50.4021L49.1588 21.8202L51.4687 20.668L53.4375 22.1484L55.4063 20.668L57.7162 21.8202L56.4729 23.7891Z" fill="black"/>
<path d="M26.4556 20.9766L23.1743 34.1016H36.8257L33.5445 20.9766H26.4556ZM25.5757 32.2266L27.9195 22.8516H32.0806L34.4243 32.2266H25.5757Z" fill="black"/>
<path d="M36.5625 12.3917V5.97656H40.3125V4.10156H36.5625V0.351562H34.6875V4.10156H25.3125V0.351562H23.4375V4.10156H19.6875V5.97656H23.4375V12.3917L20.6529 20.9766H7.5V17.2266H5.625V20.9766H0V22.8516H5.625V32.2266H0V34.1016H5.625V37.8516H7.5V34.1016H16.3957L10.3125 52.8516H5.625V54.7266H9.70688L8.28094 59.1243L10.0621 59.7038L11.6785 54.7266H17.5067L16.2415 59.1563L18.045 59.6718L19.4577 54.7266H24.375V52.8516H19.9933L23.2068 41.6016H36.7932L40.0067 52.8516H35.625V54.7266H40.5423L41.955 59.6718L43.7585 59.1563L42.4933 54.7266H48.3215L49.9361 59.7038L51.7172 59.1243L50.2931 54.7266H54.375V52.8516H49.6875L36.5625 12.3917ZM25.3125 5.97656H34.6875V11.6016H25.3125V5.97656ZM7.5 32.2266V22.8516H20.0446L17.0045 32.2266H7.5ZM18.0423 52.8516H12.2859L13.8066 48.1641H19.3817L18.0423 52.8516ZM40.0818 46.2891L38.2068 39.7266H21.7932L19.9182 46.2891H14.415L25.0566 13.4766H34.9434L45.585 46.2891H40.0818ZM41.9568 52.8516L40.6174 48.1641H46.1925L47.7187 52.8516H41.9568Z" fill="black"/>
</svg>
