<svg width="60" height="60" viewBox="0 0 60 60" fill="none" xmlns="http://www.w3.org/2000/svg">
<path d="M6.99692 5.02446C6.99692 5.57647 6.54937 6.02402 5.99736 6.02402C5.44536 6.02402 4.9978 5.57647 4.9978 5.02446C4.9978 4.47246 5.44536 4.0249 5.99736 4.0249C6.54937 4.0249 6.99692 4.47246 6.99692 5.02446Z" fill="black"/>
<path d="M10.9952 5.02446C10.9952 5.57647 10.5477 6.02402 9.99565 6.02402C9.44365 6.02402 8.99609 5.57647 8.99609 5.02446C8.99609 4.47246 9.44365 4.0249 9.99565 4.0249C10.5477 4.0249 10.9952 4.47246 10.9952 5.02446Z" fill="black"/>
<path d="M14.9935 5.02446C14.9935 5.57647 14.5459 6.02402 13.9939 6.02402C13.4419 6.02402 12.9944 5.57647 12.9944 5.02446C12.9944 4.47246 13.4419 4.0249 13.9939 4.0249C14.5459 4.0249 14.9935 4.47246 14.9935 5.02446Z" fill="black"/>
<path d="M20.9908 4.0249C20.4388 4.0249 19.9912 4.47246 19.9912 5.02446C19.9912 5.57647 20.4388 6.02402 20.9908 6.02402H45.9798C46.5318 6.02402 46.9794 5.57647 46.9794 5.02446C46.9794 4.47246 46.5318 4.0249 45.9798 4.0249H20.9908Z" fill="black"/>
<path d="M14.4136 49.0048H1.99912V10.022H45.9798C46.5318 10.022 46.9794 9.57442 46.9794 9.02241C46.9794 8.47041 46.5318 8.02285 45.9798 8.02285H1.99912V2.02549H48.9785V14.44C48.9785 14.992 49.426 15.4395 49.978 15.4395C50.53 15.4395 50.9776 14.992 50.9776 14.44V1.02593C50.9776 0.473924 50.53 0.0263672 49.978 0.0263672H0.999561C0.447557 0.0263672 0 0.473924 0 1.02593V50.0044C0 50.5564 0.447557 51.004 0.999561 51.004H14.4136C14.9656 51.004 15.4131 50.5564 15.4131 50.0044C15.4131 49.4524 14.9656 49.0048 14.4136 49.0048Z" fill="black"/>
<path d="M59.6836 55.4616L54.186 50.0041L57.4048 47.8551C57.7362 47.6384 57.909 47.2465 57.8446 46.8555C57.7777 46.4661 57.4878 46.1527 57.1047 46.0556L43.6809 42.4873C43.3373 42.398 42.9727 42.4971 42.7218 42.748C42.471 42.9988 42.3719 43.3634 42.4612 43.707L45.9797 57.1308C46.0768 57.5139 46.3902 57.8039 46.7791 57.8707C47.1701 57.9351 47.5625 57.7624 47.7787 57.431L49.9779 54.2122L55.4755 59.7098C55.6639 59.8967 55.9197 60.0011 56.1852 59.9997C56.4507 60.0011 56.7064 59.8967 56.8948 59.7098L59.7237 56.8809C59.9077 56.6881 60.0072 56.4295 59.9994 56.163C59.9921 55.8965 59.8784 55.6442 59.6836 55.4616V55.4616ZM56.1451 57.5906L50.4875 51.9334C50.3015 51.7484 50.0502 51.6445 49.7881 51.6435H49.688C49.3913 51.6737 49.1238 51.8348 48.9584 52.0832L47.359 54.4723L44.8303 44.8564L54.4462 47.3851L52.0571 49.0045C51.8087 49.17 51.6476 49.4374 51.6174 49.7342C51.59 50.0304 51.6964 50.3237 51.9073 50.5336L57.5644 56.1913L56.1451 57.5906Z" fill="black"/>
<path d="M41.5417 52.513C39.4567 53.3788 37.2389 53.8825 34.9845 54.0025V45.0065C36.4624 45.0412 37.9373 45.1578 39.4025 45.3564C39.9545 45.4336 40.465 45.049 40.5422 44.497C40.6193 43.9445 40.2347 43.4344 39.6827 43.3573C38.1243 43.1533 36.5556 43.0367 34.9845 43.0074V35.0109H44.9801C44.9294 36.5786 44.7761 38.1414 44.5204 39.689C44.4291 40.241 44.803 40.7623 45.355 40.8535C45.907 40.9443 46.4282 40.571 46.5195 40.0185C46.785 38.3615 46.9388 36.6884 46.9793 35.0109H53.9762C53.8722 37.2623 53.3856 39.4796 52.5369 41.5681C52.3299 42.0757 52.5706 42.656 53.0767 42.8673C53.1968 42.9186 53.3256 42.9459 53.4564 42.9473C53.8659 42.9478 54.2344 42.6984 54.3862 42.3177C55.4536 39.6793 55.9934 36.8573 55.9753 34.0113C55.9778 28.8515 54.1582 23.8566 50.8374 19.9077C46.664 14.9147 40.4929 12.0269 33.985 12.021H33.2651C28.4113 12.1801 23.7448 13.9371 19.9911 17.0188C19.5631 17.3692 19.5006 18.0003 19.851 18.4283C20.202 18.8559 20.8326 18.9188 21.2606 18.5679C22.9971 17.1394 24.9596 16.0109 27.0681 15.2295C25.4009 17.0437 24.0919 19.1565 23.2099 21.4568C21.5056 20.9731 19.8359 20.3757 18.2121 19.6675C17.8158 19.5001 17.3565 19.6046 17.0725 19.9277C17.0725 19.9277 17.0222 19.9277 17.0022 19.9877C13.7683 23.9337 12.002 28.8793 12.0044 33.9816C12.0049 39.0936 13.7941 44.044 17.0622 47.9754L17.1325 48.055C21.2894 53.0772 27.4654 55.9895 33.985 56.0017C36.8343 56.0036 39.6563 55.4467 42.2914 54.3623C42.6438 54.2441 42.9015 53.9401 42.96 53.573C43.0191 53.206 42.8693 52.8366 42.5715 52.614C42.2738 52.3914 41.877 52.3529 41.5417 52.513V52.513ZM32.9854 53.9127C29.7969 53.4027 26.988 50.4143 25.1788 46.0158C27.7397 45.4135 30.3557 45.0748 32.9854 45.0065V53.9127ZM32.9854 43.0074C30.1195 43.0664 27.2677 43.4315 24.4794 44.0967C23.5584 41.1532 23.0567 38.0945 22.9898 35.0109H32.9854V43.0074ZM14.0435 35.0109H20.9907C21.0532 38.2805 21.5783 41.5241 22.5501 44.6468C21.0688 45.0792 19.6138 45.5966 18.1921 46.1959C15.6952 42.981 14.2471 39.0765 14.0435 35.0109V35.0109ZM42.7311 22.0166C40.1893 22.6111 37.5937 22.9459 34.9845 23.0162V14.1202C38.1433 14.6497 40.9219 17.6484 42.7311 22.0166ZM32.9854 33.0118H22.9898C23.0523 29.9169 23.5574 26.8475 24.4891 23.8957C27.2731 24.5707 30.1214 24.946 32.9854 25.0153V33.0118ZM34.9845 25.0153C37.827 24.9543 40.6549 24.5921 43.4208 23.9357C44.3491 26.8743 44.8537 29.9306 44.9201 33.0118H34.9845V25.0153ZM53.9762 33.0118H46.9793C46.9197 29.7461 46.398 26.5054 45.4301 23.3861C46.9324 22.9547 48.4078 22.4339 49.8481 21.8267C52.3378 25.0441 53.7785 28.9486 53.9762 33.0118ZM48.4786 20.2274C47.2589 20.7179 46.0144 21.1449 44.7503 21.5071C43.8737 19.1902 42.5569 17.0652 40.8721 15.2496C43.7366 16.3131 46.3209 18.0154 48.4288 20.2274H48.4786ZM32.9854 14.1099V23.0162C30.3557 22.9508 27.7402 22.6159 25.1788 22.0166C26.988 17.6084 29.7969 14.62 32.9854 14.1099ZM20.9907 33.0118H13.9938C14.2002 28.9501 15.6405 25.0485 18.1218 21.8267C19.547 22.4261 21.0058 22.9434 22.49 23.3759C21.5368 26.501 21.0322 29.7451 20.9907 33.0118ZM19.5411 47.7953C20.7418 47.3131 21.9663 46.8929 23.2099 46.5356C24.0889 48.8242 25.3911 50.9268 27.0481 52.7331C24.2022 51.6808 21.6344 49.9916 19.5411 47.7953Z" fill="black"/>
<path d="M57.0549 24.3957C57.2082 24.769 57.5708 25.0135 57.9744 25.0155C58.1057 25.0189 58.2355 24.9916 58.3541 24.9355C58.8603 24.7236 59.1009 24.1438 58.8939 23.6362C57.8651 21.149 56.4629 18.8336 54.7356 16.7691C54.3691 16.4411 53.818 16.4289 53.4369 16.7398C53.0562 17.0512 52.9581 17.594 53.2065 18.0186C54.8039 19.9377 56.1017 22.0881 57.0549 24.3957Z" fill="black"/>
<path d="M13.2243 16.7691C9.2002 21.6141 6.99756 27.7135 6.99707 34.0115C6.99707 34.5635 7.44463 35.0111 7.99663 35.0111C8.54863 35.0111 8.99619 34.5635 8.99619 34.0115C8.99033 28.1703 11.0309 22.5117 14.7637 18.0185C15.117 17.5934 15.059 16.9623 14.6338 16.609C14.2087 16.2556 13.5777 16.3142 13.2243 16.7393V16.7691Z" fill="black"/>
</svg>
