<svg width="14" height="14" viewBox="0 0 14 14" fill="none" xmlns="http://www.w3.org/2000/svg">
<path d="M0.0332489 14L1.01733 10.4049C0.410082 9.35258 0.0909989 8.15967 0.0915822 6.93642C0.0933322 3.11208 3.20542 0 7.02917 0C8.88475 0.000583333 10.6266 0.723333 11.9367 2.03467C13.2463 3.346 13.9673 5.089 13.9668 6.94283C13.965 10.7677 10.8529 13.8798 7.02917 13.8798C5.86833 13.8792 4.72442 13.5882 3.71117 13.0352L0.0332489 14ZM3.8815 11.7793C4.85917 12.3597 5.7925 12.7073 7.02683 12.7079C10.2048 12.7079 12.7937 10.1214 12.7954 6.94167C12.7966 3.7555 10.22 1.1725 7.0315 1.17133C3.85117 1.17133 1.26408 3.75783 1.26292 6.937C1.26233 8.23492 1.64267 9.20675 2.28142 10.2235L1.69867 12.3515L3.8815 11.7793ZM10.5239 8.59192C10.4808 8.51958 10.3653 8.47642 10.1914 8.3895C10.0182 8.30258 9.16592 7.88317 9.00667 7.82542C8.848 7.76767 8.7325 7.7385 8.61642 7.91233C8.50092 8.08558 8.16842 8.47642 8.0675 8.59192C7.96658 8.70742 7.86508 8.722 7.69183 8.63508C7.51858 8.54817 6.95975 8.36558 6.29767 7.77467C5.78258 7.315 5.43433 6.74742 5.33342 6.57358C5.2325 6.40033 5.32292 6.30642 5.40925 6.22008C5.48742 6.1425 5.5825 6.01767 5.66942 5.91617C5.7575 5.81583 5.78608 5.7435 5.84442 5.62742C5.90217 5.51192 5.87358 5.41042 5.82983 5.3235C5.78608 5.23717 5.43958 4.38375 5.2955 4.03667C5.15433 3.69892 5.01142 3.74442 4.90525 3.73917L4.57275 3.73333C4.45725 3.73333 4.26942 3.7765 4.11075 3.95033C3.95208 4.12417 3.50408 4.543 3.50408 5.39642C3.50408 6.24983 4.12533 7.07408 4.21167 7.18958C4.29858 7.30508 5.43375 9.05625 7.17267 9.807C7.58625 9.9855 7.90942 10.0922 8.16083 10.1722C8.57617 10.304 8.95417 10.2853 9.25283 10.241C9.58592 10.1914 10.2783 9.82158 10.423 9.41675C10.5677 9.01133 10.5677 8.66425 10.5239 8.59192Z"/>
</svg>
